<?xml version="1.0" standalone="no"?>
<!DOCTYPE svg PUBLIC "-//W3C//DTD SVG 1.1//EN" "http://www.w3.org/Graphics/SVG/1.1/DTD/svg11.dtd" >
<svg xmlns="http://www.w3.org/2000/svg">
<metadata>
This is a custom SVG webfont generated by Font Squirrel.
Copyright   : Copyright c 2008 by Process Type Foundry All rights reserved
Designer    : Eric Olson
Foundry     : Process Type Foundry
Foundry URL : httpwwwprocesstypefoundrycom
</metadata>
<defs>
<font id="BryantMedium" horiz-adv-x="1361" >
<font-face units-per-em="2048" ascent="1536" descent="-512" />
<missing-glyph horiz-adv-x="700" />
<glyph unicode=" "  horiz-adv-x="700" />
<glyph unicode="&#x09;" horiz-adv-x="700" />
<glyph unicode="&#xa0;" horiz-adv-x="700" />
<glyph unicode="!" horiz-adv-x="724" d="M217 126q0 60 43 102t102.5 42t102.5 -42t43 -102t-43 -102t-102.5 -42t-102.5 42t-43 102zM250 891v625q0 47 30.5 79.5t82 32.5t82 -32.5t30.5 -79.5v-625l-57 -420q-10 -55 -56 -55q-49 0 -57 55z" />
<glyph unicode="&#x22;" horiz-adv-x="991" d="M170 1098v432q0 41 28.5 69.5t69.5 28.5t70 -28.5t29 -69.5v-432q0 -41 -29 -71t-70 -30t-69.5 30t-28.5 71zM627 1098v432q0 41 28.5 69.5t69.5 28.5t69.5 -28.5t28.5 -69.5v-432q0 -41 -28.5 -71t-69.5 -30t-69.5 30t-28.5 71z" />
<glyph unicode="#" horiz-adv-x="1759" d="M133 518q0 94 96 94h209l43 408h-211q-33 0 -55 21.5t-22 56.5q0 39 25.5 66.5t72.5 27.5h209l37 342q10 94 104 94q92 0 82 -102l-37 -334h488l36 342q6 51 29 72.5t76 21.5q86 0 80 -102l-35 -334h215q33 0 54.5 -23.5t21.5 -56.5q0 -39 -26 -65.5t-69 -26.5h-215 l-43 -408h209q33 0 56.5 -22.5t23.5 -54.5q0 -39 -26.5 -67t-67.5 -28h-215l-39 -358q-8 -100 -102 -100q-41 0 -64.5 28.5t-19.5 69.5l39 360h-488l-39 -364q-12 -94 -100 -94q-98 0 -86 112l39 346h-201q-37 0 -60.5 21.5t-23.5 56.5zM623 612h489l43 408h-487z" />
<glyph unicode="$" horiz-adv-x="1458" d="M170 283q0 41 22.5 64.5t57.5 23.5q29 0 53.5 -11.5t57 -32t47.5 -28.5q158 -82 342 -82q162 0 249.5 58.5t87.5 156.5q0 96 -84.5 155.5t-304.5 135.5q-293 98 -401.5 202.5t-108.5 272.5q0 172 127 267.5t349 117.5v199q0 35 25.5 60.5t62 25.5t63.5 -25.5t27 -60.5 v-201q100 -6 245 -55q82 -33 127.5 -63.5t45.5 -80.5q0 -88 -89 -88q-27 0 -59 17q-203 88 -360 88q-160 0 -253 -50.5t-93 -149.5t73.5 -151.5t302.5 -134.5q276 -96 398.5 -191t122.5 -276q0 -170 -120 -277.5t-352 -139.5v-201q0 -33 -25.5 -59.5t-62.5 -26.5t-62.5 25.5 t-25.5 60.5v199q-145 14 -311 86q-174 76 -174 170z" />
<glyph unicode="%" horiz-adv-x="2084" d="M133 1247q0 168 109.5 279.5t289 111.5t289 -111.5t109.5 -279.5t-109.5 -279.5t-289 -111.5t-289 111.5t-109.5 279.5zM319 1246.5q0 -99.5 59.5 -163t153.5 -63.5q96 0 153.5 63.5t57.5 163t-57 164t-154 64.5q-94 0 -153.5 -64.5t-59.5 -164zM449 53q0 29 32 76 l985 1468q27 41 74 41q88 0 88 -90q0 -27 -26 -69l-988 -1469q-27 -39 -69 -39q-43 0 -69.5 23.5t-26.5 58.5zM1143 362q0 170 110.5 281t288.5 111t289 -111t111 -281q0 -166 -111 -278.5t-289 -112.5t-288.5 112.5t-110.5 278.5zM1329 362.5q0 -98.5 59.5 -163 t153.5 -64.5q96 0 154.5 64.5t58.5 163t-58.5 163t-154.5 64.5q-94 0 -153.5 -64.5t-59.5 -163z" />
<glyph unicode="&#x26;" horiz-adv-x="1755" d="M109 399q0 322 436 516q-164 203 -164 375q0 160 102.5 254t282.5 94q150 0 248 -90t98 -245q0 -268 -289 -443l299 -428q57 78 144 258q29 59 90 60q45 0 71.5 -28t26.5 -73q0 -41 -59 -149q-66 -119 -152 -221q45 -66 88 -97.5t107 -31.5q84 0 147 43q20 12 43 12 q33 0 54.5 -20.5t21.5 -55.5q0 -51 -70 -100q-88 -57 -209 -58q-199 0 -325 168q-197 -168 -486 -168q-227 0 -366 117.5t-139 310.5zM332 406q0 -111 81 -182.5t205 -71.5q190 0 363 143l-334 471q-152 -80 -233.5 -162.5t-81.5 -197.5zM590 1288q0 -115 137 -295 q80 49 135.5 127t55.5 160q0 88 -42 137t-116 49q-78 0 -124 -44t-46 -134z" />
<glyph unicode="'" horiz-adv-x="534" d="M170 1098v432q0 41 28.5 69.5t69.5 28.5t70 -28.5t29 -69.5v-432q0 -41 -29 -71t-70 -30t-69.5 30t-28.5 71z" />
<glyph unicode="(" horiz-adv-x="800" d="M205 652.5q0 521.5 303 1010.5q31 53 92 53q43 0 75 -26.5t32 -69.5q0 -35 -17 -59q-258 -434 -258 -908.5t258 -908.5q16 -25 17 -57q0 -45 -32 -72t-75 -27q-61 0 -92 54q-303 489 -303 1010.5z" />
<glyph unicode=")" horiz-adv-x="800" d="M96 -313q0 33 15 57q260 434 260 908t-260 909q-14 25 -15 59q0 43 32 69.5t75 26.5q61 0 92 -53q301 -489 301 -1010.5t-301 -1010.5q-31 -53 -92 -54q-43 0 -75 27t-32 72z" />
<glyph unicode="*" horiz-adv-x="974" d="M96 1286q0 27 16.5 43.5t43.5 16.5h223l-115 190q-12 20 -12 37q0 55 61 55q35 0 49 -26l125 -205l127 205q14 27 48 26q63 0 63 -55q0 -16 -12 -37l-117 -190h225q27 0 43.5 -16.5t16.5 -43.5q0 -25 -17.5 -42t-42.5 -17h-225l117 -191q12 -25 12 -35q0 -25 -18.5 -41 t-42.5 -16q-33 0 -56 35l-121 199l-120 -199q-20 -35 -56 -35q-25 0 -42 16.5t-17 40.5q0 10 12 35l115 191h-223q-25 0 -42.5 17t-17.5 42z" />
<glyph unicode="+" horiz-adv-x="1329" d="M121 780q0 39 26.5 65.5t65.5 26.5h350v351q0 43 29 72.5t73 29.5t72.5 -29.5t28.5 -72.5v-351h350q39 0 65.5 -26.5t26.5 -65.5t-26.5 -65.5t-65.5 -26.5h-350v-350q0 -43 -28.5 -71.5t-72.5 -28.5t-73 28.5t-29 71.5v350h-350q-39 0 -65.5 26.5t-26.5 65.5z" />
<glyph unicode="," horiz-adv-x="552" d="M102 -324q0 20 21 70q63 145 63 297v129q0 45 27 76t73 31t72.5 -31t26.5 -76v-96q0 -240 -86 -408q-39 -72 -98 -71q-45 0 -72 24t-27 55z" />
<glyph unicode="-" horiz-adv-x="1079" d="M170 599q0 44 29.5 70.5t70.5 26.5h539q41 0 71.5 -26.5t30.5 -70.5t-30.5 -70.5t-71.5 -26.5h-539q-41 0 -70.5 26.5t-29.5 70.5z" />
<glyph unicode="." horiz-adv-x="626" d="M170 126q0 60 42 102t102.5 42t102.5 -42t42 -102t-42 -102t-102.5 -42t-102.5 42t-42 102z" />
<glyph unicode="/" horiz-adv-x="1060" d="M121 -164q0 12 10 41l612 1806q25 70 99 70q47 0 72.5 -28.5t25.5 -71.5q0 -12 -10 -41l-613 -1798q-25 -72 -98 -72q-43 0 -70.5 27.5t-27.5 66.5z" />
<glyph unicode="0" horiz-adv-x="1642" d="M133 805q0 346 186.5 589.5t503 243.5t502.5 -243.5t186 -589.5t-186 -590t-502.5 -244t-503 244t-186.5 590zM360 805q0 -270 127 -450.5t335 -180.5t335 180.5t127 450.5t-127 450.5t-335 180.5t-335 -180.5t-127 -450.5z" />
<glyph unicode="1" horiz-adv-x="944" d="M61 1395q0 74 82 98l408 127q29 8 53 8q51 0 81 -29.5t30 -85.5v-1419q0 -49 -31 -80.5t-82 -31.5t-83 31.5t-32 80.5v1288l-284 -88q-18 -4 -29 -4q-43 0 -78 29t-35 76z" />
<glyph unicode="2" horiz-adv-x="1531" d="M150 104q0 272 120.5 416t409.5 291l201 108q57 32 134 86t103.5 101t26.5 104q0 111 -98.5 168.5t-270.5 57.5q-229 0 -440 -138q-27 -18 -53 -18q-43 0 -73 28.5t-30 65.5q0 92 168 172q197 92 440 92q264 0 424 -109.5t160 -316.5q0 -166 -112.5 -279.5t-385.5 -252.5 q-270 -139 -371.5 -232.5t-101.5 -244.5h885q43 0 71.5 -28t28.5 -73t-28.5 -73.5t-71.5 -28.5h-1036q-43 0 -71.5 31.5t-28.5 72.5z" />
<glyph unicode="3" horiz-adv-x="1538" d="M121 260q0 47 31.5 73.5t72.5 26.5q33 0 66 -24q113 -86 214 -129t257 -43q180 0 292.5 82t112.5 225q0 147 -115.5 218t-312.5 71h-135q-43 0 -73.5 28.5t-30.5 71.5t30.5 70.5t73.5 27.5h105q168 0 259 71t91 188q0 229 -303 229q-156 0 -289 -72q-68 -33 -107 -33 q-43 0 -67.5 26t-24.5 65q0 84 152 143q150 63 356 63q233 0 371.5 -107.5t138.5 -297.5q0 -244 -244 -348q352 -96 353 -424q0 -217 -176.5 -353.5t-456.5 -136.5q-362 0 -600 207q-41 33 -41 82z" />
<glyph unicode="4" horiz-adv-x="1552" d="M61 520q0 35 31 74l891 987q41 47 100 47q47 0 78 -29.5t31 -80.5v-904h221q41 0 69.5 -26.5t28.5 -67.5t-28.5 -67.5t-69.5 -26.5h-221v-334q0 -49 -33 -79.5t-80 -30.5t-79.5 30.5t-32.5 79.5v334h-807q-41 0 -70 26.5t-29 67.5zM360 614h607v674z" />
<glyph unicode="5" horiz-adv-x="1540" d="M139 242q0 49 30 76.5t73 27.5q39 0 63 -22q115 -84 218.5 -122t238.5 -38q182 0 294.5 95t112.5 247q0 147 -99 236t-279 89q-197 0 -398 -118q-31 -18 -61 -19q-55 0 -82 31t-21 78l115 715q16 92 109 92h706q45 0 76 -29t31 -76q0 -41 -31 -70.5t-76 -29.5h-622 l-72 -467q139 92 338 92q281 0 437.5 -145.5t156.5 -378.5q0 -225 -170 -380t-465 -155q-360 0 -578 191q-45 37 -45 80z" />
<glyph unicode="6" horiz-adv-x="1540" d="M158 567q0 193 67.5 370t177 309t237.5 228.5t261 147.5q47 16 74 16q45 0 70.5 -25.5t25.5 -60.5q0 -59 -70 -98q-508 -276 -610 -676q147 219 469 219q258 0 411.5 -138t153.5 -365.5t-169 -375t-451 -147.5q-309 0 -478 167t-169 429zM414 485q0 -150 104.5 -236.5 t288.5 -86.5q182 0 286.5 93t104.5 237q0 147 -104.5 231t-276.5 84q-168 0 -285.5 -87.5t-117.5 -234.5z" />
<glyph unicode="7" horiz-adv-x="1386" d="M72 1508q0 44 30.5 73t73.5 29h1041q111 0 110 -99q0 -35 -24 -63q-274 -346 -394.5 -648t-120.5 -708q0 -49 -30.5 -79.5t-83.5 -30.5t-83 30.5t-30 79.5q0 776 467 1315h-852q-43 0 -73.5 28.5t-30.5 72.5z" />
<glyph unicode="8" horiz-adv-x="1574" d="M145 459q0 158 93.5 266.5t244.5 161.5q-225 129 -225 336q0 182 148.5 298.5t381 116.5t381 -116.5t148.5 -298.5q0 -207 -225 -336q154 -53 247 -162t93 -266q0 -209 -174.5 -348.5t-469 -139.5t-469 139.5t-174.5 348.5zM373 466q0 -138 115.5 -222t299 -84t300 84 t116.5 222t-116.5 221t-300 83t-299 -83t-115.5 -221zM481 1205.5q0 -113.5 88 -184.5t218.5 -71t219.5 71t89 184.5t-84 179t-224.5 65.5t-223.5 -65.5t-83 -179z" />
<glyph unicode="9" horiz-adv-x="1533" d="M125 1116q0 221 177 371.5t450 150.5q311 0 477 -161.5t166 -434.5q0 -193 -67.5 -369.5t-178.5 -309t-239 -228.5t-261 -147q-45 -16 -71 -17q-45 0 -71 26t-26 60q0 59 70 99q508 276 608 675q-147 -219 -469 -219q-258 0 -411.5 138.5t-153.5 365.5zM352 1118 q0 -147 105.5 -231t277.5 -84q166 0 285 87t119 234q0 150 -105.5 237t-290.5 87q-180 0 -285.5 -93.5t-105.5 -236.5z" />
<glyph unicode=":" horiz-adv-x="626" d="M170 126q0 60 42 102t102.5 42t102.5 -42t42 -102t-42 -102t-102.5 -42t-102.5 42t-42 102zM170 758.5q0 60.5 42 102.5t102.5 42t102.5 -42t42 -102.5t-42 -102.5t-102.5 -42t-102.5 42t-42 102.5z" />
<glyph unicode=";" horiz-adv-x="618" d="M121 -324q0 20 22 70q55 129 56 295v129q0 47 28.5 78t76.5 31t78 -31t30 -78v-98q0 -221 -93 -404q-39 -72 -100 -71q-45 0 -71.5 24t-26.5 55zM160 758.5q0 60.5 42 102.5t102.5 42t102.5 -42t42 -102.5t-42 -102.5t-102.5 -42t-102.5 42t-42 102.5z" />
<glyph unicode="&#x3c;" horiz-adv-x="1339" d="M121 781.5q0 60.5 55 86.5l856 451q27 14 53 14q43 0 71 -29.5t28 -68.5q0 -57 -62 -90l-716 -365l716 -364q61 -31 62 -90q0 -39 -28 -69t-71 -30q-27 0 -53 15l-856 452q-55 27 -55 87.5z" />
<glyph unicode="=" horiz-adv-x="1339" d="M193 573.5q0 38.5 26.5 63.5t63.5 25h774q39 0 64.5 -25t25.5 -63.5t-25.5 -64.5t-64.5 -26h-774q-37 0 -63.5 26t-26.5 64.5zM193 989q0 39 26.5 63.5t63.5 24.5h774q39 0 64.5 -24.5t25.5 -63.5t-25.5 -64.5t-64.5 -25.5h-774q-37 0 -63.5 25.5t-26.5 64.5z" />
<glyph unicode="&#x3e;" horiz-adv-x="1339" d="M158 326q0 59 61 90l717 364l-717 365q-61 33 -61 90q0 39 27.5 68.5t70.5 29.5q29 0 53 -14l856 -451q55 -27 55.5 -87t-55.5 -87l-856 -452q-25 -14 -53 -15q-43 0 -70.5 30t-27.5 69z" />
<glyph unicode="?" horiz-adv-x="1165" d="M84 1434q0 61 86 106q184 98 408 98q229 0 361 -93t132 -273q0 -109 -54 -193t-196 -202q-115 -96 -147.5 -148.5t-32.5 -146.5v-58q0 -49 -31.5 -80.5t-85.5 -31.5q-51 0 -80.5 31.5t-29.5 78.5v64q0 147 47 224t168 175q84 72 118.5 104.5t65.5 81t31 95.5 q0 170 -277 170q-156 0 -323 -82q-29 -14 -64 -15q-37 0 -66.5 27t-29.5 68zM387 126q0 60 42 102t102.5 42t102.5 -42t42 -102t-42 -102t-102.5 -42t-102.5 42t-42 102z" />
<glyph unicode="@" horiz-adv-x="1841" d="M109 827q0 356 213 583.5t575 227.5q262 0 413.5 -133t151.5 -387v-606q0 -37 -25.5 -63.5t-64.5 -26.5t-63.5 26.5t-24.5 63.5v33q-90 -131 -262 -131q-174 0 -280.5 115.5t-106.5 297t106.5 296t280.5 114.5q172 0 262 -125v33q0 342 -393 342q-283 0 -445.5 -185.5 t-162.5 -474.5q0 -322 203.5 -514t560.5 -192q285 0 604 158q14 6 37 6q31 0 51 -21.5t20 -52.5q0 -39 -51 -72q-289 -168 -664 -168q-432 0 -683.5 238.5t-251.5 617.5zM815 826.5q0 -113.5 62.5 -185.5t169 -72t172 72t65.5 185.5t-66.5 183t-170.5 69.5 q-106 0 -169 -69.5t-63 -183z" />
<glyph unicode="A" horiz-adv-x="1714" d="M104 90q0 18 13 47l637 1424q29 68 103.5 67.5t105.5 -67.5l636 -1424q12 -29 13 -47q0 -47 -29 -77.5t-80 -30.5q-76 0 -104 67l-162 352h-758l-162 -352q-31 -68 -104 -67q-51 0 -80 30.5t-29 77.5zM563 606h590l-295 684z" />
<glyph unicode="B" horiz-adv-x="1605" d="M217 119v1374q0 49 34 83t83 34h563q225 0 358.5 -108.5t133.5 -291.5q0 -115 -66 -207t-182 -141q158 -29 252 -130t94 -277q0 -188 -147.5 -321.5t-415.5 -133.5h-590q-49 0 -83 35t-34 84zM449 207h493q145 0 228 75.5t83 196.5q0 125 -83 194.5t-230 69.5h-491v-536z M449 952h460q115 0 180.5 67.5t65.5 162.5q0 109 -67.5 164t-184.5 55h-454v-449z" />
<glyph unicode="C" horiz-adv-x="1701" d="M121 805q0 350 224 591.5t593 241.5q193 0 353.5 -73.5t254.5 -192.5q33 -39 33 -82q0 -45 -29.5 -72.5t-74.5 -27.5q-55 0 -103 55q-164 182 -420 182q-283 0 -440.5 -177t-157.5 -445t158 -446.5t440 -178.5q256 0 420 185q47 55 103 55q45 0 74.5 -27.5t29.5 -73.5 q0 -43 -33 -81q-94 -119 -255 -193t-353 -74q-369 0 -593 242t-224 592z" />
<glyph unicode="D" horiz-adv-x="1710" d="M217 119v1372q0 49 35 84t84 35h446q369 0 588 -226.5t219 -578.5t-219 -578.5t-588 -226.5h-446q-49 0 -84 35t-35 84zM449 213h327q272 0 427 163t155 429t-154.5 429t-427.5 163h-327v-1184z" />
<glyph unicode="E" horiz-adv-x="1460" d="M217 117v1376q0 49 35 83t84 34h891q47 0 79.5 -31t32.5 -76t-32.5 -75.5t-79.5 -30.5h-778v-467h440q43 0 74.5 -30t31.5 -76t-31.5 -76.5t-74.5 -30.5h-440v-504h815q47 0 78.5 -28.5t31.5 -78.5q0 -45 -31.5 -75.5t-78.5 -30.5h-928q-51 0 -85 34t-34 83z" />
<glyph unicode="F" horiz-adv-x="1386" d="M217 96v1397q0 49 34 83t83 34h901q45 0 76.5 -31t31.5 -78t-32.5 -77.5t-75.5 -30.5h-786v-457h442q47 0 78.5 -32t31.5 -78t-31.5 -77.5t-78.5 -31.5h-442v-621q0 -47 -34 -80.5t-82 -33.5t-82 33.5t-34 80.5z" />
<glyph unicode="G" horiz-adv-x="1763" d="M121 805q0 365 230.5 599t584.5 234q350 0 545 -204q37 -37 37 -78q0 -45 -29 -76t-78 -31q-39 0 -78 29q-193 145 -397 145q-260 0 -421 -177t-161 -441q0 -270 155 -451.5t431 -181.5q283 0 446 145v297h-382q-45 0 -76 30t-31 77q0 43 30.5 72.5t76.5 29.5h495 q49 0 82 -30.5t33 -85.5v-402q0 -51 -27 -78q-109 -121 -277.5 -188.5t-369.5 -67.5q-365 0 -592 237t-227 597z" />
<glyph unicode="H" horiz-adv-x="1765" d="M217 98v1413q0 49 33 83t84 34t83 -33.5t32 -83.5v-575h868v575q0 49 33.5 83t83.5 34q51 0 82.5 -33.5t31.5 -83.5v-1413q0 -49 -31.5 -82.5t-82.5 -33.5q-49 0 -83 34.5t-34 81.5v619h-868v-619q0 -49 -31 -82.5t-82 -33.5t-85 33.5t-34 82.5z" />
<glyph unicode="I" horiz-adv-x="690" d="M229 98v1413q0 49 33 83t86 34q51 0 82 -32.5t31 -84.5v-1413q0 -49 -31 -82.5t-82 -33.5t-85 33.5t-34 82.5z" />
<glyph unicode="J" horiz-adv-x="1470" d="M72 479q0 47 30.5 75t81.5 28q53 0 76 -22.5t35 -74.5q39 -152 120 -230.5t249 -78.5q371 0 370 436v899q0 49 33 83t86 34q51 0 82 -32.5t31 -84.5v-890q0 -295 -154 -472.5t-453 -177.5q-221 0 -388 128t-195 327q-4 16 -4 53z" />
<glyph unicode="K" horiz-adv-x="1619" d="M217 98v1413q0 49 33 83t86 34q51 0 82 -32.5t31 -84.5v-708l813 792q33 33 76.5 33t78.5 -30.5t35 -75.5q0 -53 -37 -84l-463 -455l525 -831q18 -31 18 -66q0 -37 -30.5 -70.5t-75.5 -33.5q-70 0 -101 53l-500 794l-339 -331v-400q0 -49 -31 -82.5t-82 -33.5t-85 33.5 t-34 82.5z" />
<glyph unicode="L" horiz-adv-x="1406" d="M217 119v1392q0 49 33 83t86 34q51 0 82 -32.5t31 -84.5v-1294h772q43 0 75.5 -30.5t32.5 -75.5t-32.5 -78t-75.5 -33h-885q-51 0 -85 34t-34 85z" />
<glyph unicode="M" horiz-adv-x="2082" d="M217 92v1428q0 51 31 79.5t78 28.5q72 0 104 -69l612 -1254l611 1254q35 70 104 69q47 0 78 -28.5t31 -79.5v-1428q0 -47 -31 -78.5t-78 -31.5q-51 0 -80.5 31.5t-29.5 78.5v979l-504 -1022q-31 -68 -101.5 -67.5t-101.5 67.5l-502 1022v-979q0 -47 -30.5 -78.5 t-81.5 -31.5q-47 0 -78 31.5t-31 78.5z" />
<glyph unicode="N" horiz-adv-x="1777" d="M217 90v1428q0 53 31 81.5t84 28.5t86 -45l923 -1175v1110q0 51 32 80.5t80 29.5t78 -29.5t30 -80.5v-1428q0 -47 -29 -77.5t-82 -30.5t-86 41l-926 1177v-1110q0 -47 -30.5 -77.5t-81.5 -30.5q-47 0 -78 30.5t-31 77.5z" />
<glyph unicode="O" horiz-adv-x="1898" d="M133 805q0 348 228.5 590.5t589 242.5t588.5 -242.5t228 -590.5t-228 -591t-588.5 -243t-589 243t-228.5 591zM365 805q0 -260 157.5 -442.5t428 -182.5t427 182.5t156.5 442.5t-156.5 441t-427 181t-428 -181t-157.5 -441z" />
<glyph unicode="P" horiz-adv-x="1574" d="M217 98v1393q0 53 33 86t86 33h614q266 0 407.5 -131t141.5 -349q0 -215 -140 -343t-409 -128h-501v-561q0 -49 -31 -82.5t-82 -33.5t-85 33.5t-34 82.5zM449 872h546q129 0 200 74t71 184q0 115 -71 191t-200 76h-546v-525z" />
<glyph unicode="Q" horiz-adv-x="1898" d="M133 805q0 348 228.5 590.5t589 242.5t588.5 -242.5t228 -590.5q0 -209 -87 -387t-242 -293l141 -244q14 -27 14 -51q0 -37 -31.5 -67.5t-74.5 -30.5q-59 0 -88 51l-137 244q-156 -55 -312 -56q-360 0 -588.5 243t-228.5 591zM365 805q0 -260 157.5 -442.5t427.5 -182.5 q111 0 205 35l-121 215q-14 25 -14 51q0 45 29.5 72t74.5 27q57 0 86 -52l121 -211q203 176 203 488q0 260 -156.5 441t-427 181t-428 -181t-157.5 -441z" />
<glyph unicode="R" horiz-adv-x="1693" d="M217 98v1393q0 53 33 86t86 33h649q268 0 408.5 -129t140.5 -344q0 -166 -84 -277.5t-246 -159.5l271 -553q12 -29 12 -51q0 -45 -32 -79.5t-83 -34.5q-72 0 -102 63l-307 629h-514v-576q0 -49 -31 -82.5t-82 -33.5t-85 33.5t-34 82.5zM449 877h583q127 0 199 73.5 t72 186.5t-72 186.5t-199 73.5h-583v-520z" />
<glyph unicode="S" horiz-adv-x="1531" d="M158 258q0 45 27.5 69.5t70.5 24.5q31 0 82 -28q119 -74 219 -112t236 -38q186 0 283.5 66.5t97.5 175.5q0 113 -92.5 169t-340.5 130q-315 94 -440 204.5t-125 284.5q0 209 169 321.5t450 112.5q184 0 364 -67q197 -76 197 -164q0 -43 -25.5 -73.5t-73.5 -30.5 q-27 0 -47 12q-207 119 -413 119q-389 0 -389 -226q0 -102 85 -156.5t312 -123.5q160 -51 260 -92t183 -98.5t121 -133.5t38 -176q0 -201 -162 -329t-454 -128q-160 0 -312.5 48.5t-259.5 130.5q-61 51 -61 108z" />
<glyph unicode="T" horiz-adv-x="1482" d="M61 1499q0 47 32 79t79 32h1141q45 0 77.5 -32t32.5 -79q0 -45 -32.5 -75.5t-77.5 -30.5h-453v-1295q0 -49 -31.5 -82.5t-82 -33.5t-84 33.5t-33.5 82.5v1295h-457q-47 0 -79 30.5t-32 75.5z" />
<glyph unicode="U" horiz-adv-x="1773" d="M207 643v868q0 49 32.5 83t86.5 34q51 0 82.5 -32.5t31.5 -84.5v-893q0 -201 116 -319.5t331 -118.5t330.5 119t115.5 319v893q0 51 32 84t83 33q53 0 86 -33.5t33 -83.5v-868q0 -311 -181.5 -491.5t-499 -180.5t-498.5 180.5t-181 491.5z" />
<glyph unicode="V" horiz-adv-x="1570" d="M63 1520q0 51 34 79.5t77 28.5q76 0 102 -67l510 -1229l508 1229q27 68 103 67q43 0 76.5 -28.5t33.5 -79.5q0 -16 -12 -47l-610 -1428q-27 -63 -99.5 -63t-99.5 63l-610 1428q-13 31 -13 47z" />
<glyph unicode="W" horiz-adv-x="2363" d="M82 1526q0 45 28.5 73.5t75.5 28.5q80 0 105 -76l395 -1161l391 1163q27 74 105 74t104 -74l391 -1163l396 1161q25 76 104 76q47 0 75.5 -28.5t28.5 -73.5q0 -20 -8 -41l-489 -1422q-27 -82 -109 -81q-78 0 -102 69l-391 1161l-391 -1161q-25 -70 -103 -69 q-82 0 -108 81l-490 1422q-8 21 -8 41z" />
<glyph unicode="X" horiz-adv-x="1638" d="M158 86q0 37 22 70l506 653l-498 649q-25 33 -24 68q0 43 32.5 72.5t79.5 29.5q49 0 84 -41l459 -602l459 602q35 41 86 41q45 0 78 -29.5t33 -72.5q0 -35 -25 -68l-498 -649l506 -653q23 -33 23 -70q0 -43 -31 -73.5t-76 -30.5q-55 0 -88 43l-467 608l-467 -608 q-33 -43 -88 -43q-45 0 -75.5 30.5t-30.5 73.5z" />
<glyph unicode="Y" horiz-adv-x="1439" d="M43 1526q0 45 33 73.5t74 28.5q55 0 92 -47l479 -668l477 668q37 47 92 47q41 0 74 -28.5t33 -73.5q0 -35 -25 -72l-534 -745v-611q0 -49 -32 -82.5t-85 -33.5t-86 33.5t-33 82.5v611l-534 745q-25 37 -25 72z" />
<glyph unicode="Z" horiz-adv-x="1538" d="M164 106q0 29 26 66l893 1227h-796q-45 0 -77 30.5t-32 77.5t32 75t77 28h1007q47 0 75 -28t28 -77q0 -31 -27 -69l-891 -1225h821q43 0 75 -29.5t32 -75t-30.5 -76t-76.5 -30.5h-1024q-51 0 -81.5 28.5t-30.5 77.5z" />
<glyph unicode="[" horiz-adv-x="886" d="M242 -250v1796q0 51 28.5 81t79.5 30h320q41 0 68.5 -25.5t27.5 -69.5t-27.5 -71t-68.5 -27h-201v-1630h201q41 0 68.5 -26.5t27.5 -70.5t-27.5 -70.5t-68.5 -26.5h-320q-51 0 -79.5 30.5t-28.5 79.5z" />
<glyph unicode="\" horiz-adv-x="1060" d="M121 1653q0 43 26.5 71.5t75.5 28.5q70 0 94 -70l613 -1806q10 -29 10 -41q0 -39 -27.5 -66.5t-70.5 -27.5q-74 0 -99 72l-612 1798q-10 29 -10 41z" />
<glyph unicode="]" horiz-adv-x="886" d="M121 -263q0 44 27.5 70.5t68.5 26.5h201v1630h-201q-41 0 -68.5 27t-27.5 71t27.5 69.5t68.5 25.5h320q51 0 79.5 -30t28.5 -81v-1796q0 -49 -28.5 -79.5t-79.5 -30.5h-320q-41 0 -68.5 26.5t-27.5 70.5z" />
<glyph unicode="^" horiz-adv-x="1134" d="M121 918q0 20 14 47l348 614q29 49 84.5 49t85.5 -49l348 -614q14 -27 15 -47q0 -41 -25.5 -66t-66.5 -25q-55 0 -86 50l-271 491l-270 -491q-29 -49 -84 -50q-41 0 -66.5 25t-25.5 66z" />
<glyph unicode="_" horiz-adv-x="1064" d="M-2 -29h1071v-102h-1071v102z" />
<glyph unicode="`" horiz-adv-x="788" d="M217 1511q0 41 27.5 64.5t66.5 23.5q49 0 78 -40l135 -187q25 -29 25 -59q0 -37 -27.5 -63.5t-64.5 -26.5q-51 0 -82 43l-133 182q-25 28 -25 63z" />
<glyph unicode="a" horiz-adv-x="1249" d="M121 297q0 158 114.5 244t296.5 86q195 0 326 -125v104q0 145 -67.5 212t-223.5 67q-119 0 -239 -43q-57 -20 -74 -21q-43 0 -69.5 26.5t-26.5 67.5q0 66 106 109q133 53 324 53q240 0 368.5 -117.5t128.5 -338.5v-527q0 -51 -28.5 -81.5t-81.5 -30.5q-51 0 -82 31.5 t-31 80.5v23q-113 -145 -340 -146q-176 0 -288.5 90.5t-112.5 235.5zM348 297q0 -80 67.5 -126t178.5 -46q109 0 186.5 49t77.5 123q0 78 -79 125t-179 47q-117 0 -184.5 -46t-67.5 -126z" />
<glyph unicode="b" horiz-adv-x="1398" d="M180 94v1422q0 47 32 79.5t83 32.5t82 -32.5t31 -79.5v-646q131 207 372 207q213 0 359.5 -154.5t146.5 -398.5q0 -240 -147.5 -396.5t-358.5 -156.5q-121 0 -222 56.5t-157 150.5v-82q0 -47 -30.5 -80.5t-80.5 -33.5t-80 31.5t-30 80.5zM408 524.5q0 -149.5 92 -257 t235 -107.5q147 0 235.5 100t88.5 264t-88 264.5t-236 100.5q-143 0 -235 -107.5t-92 -257z" />
<glyph unicode="c" horiz-adv-x="1210" d="M117 524.5q0 239.5 152.5 396t412.5 156.5q111 0 215 -43t160 -108q33 -39 33 -80q0 -39 -28 -65.5t-77 -26.5q-14 0 -28.5 6t-22.5 12t-23.5 20.5t-21.5 18.5q-86 76 -205 76q-162 0 -251 -103.5t-89 -258t89 -259t251 -104.5q119 0 205 76q6 4 21.5 18t23.5 20.5 t22.5 12.5t28.5 6q49 0 77 -26.5t28 -65.5q0 -41 -33 -80q-55 -66 -159.5 -109t-215.5 -43q-260 0 -412.5 157t-152.5 396.5z" />
<glyph unicode="d" horiz-adv-x="1398" d="M113 524q0 244 146.5 398.5t358.5 154.5q242 0 373 -207v646q0 47 31 79.5t82 32.5t83 -32.5t32 -79.5v-1422q0 -49 -30 -80.5t-80 -31.5t-81 33.5t-31 80.5v82q-55 -94 -156.5 -150.5t-222.5 -56.5q-211 0 -358 156.5t-147 396.5zM340 524q0 -164 89 -264t235 -100 q143 0 235 107.5t92 257t-92 257t-235 107.5q-145 0 -234.5 -100.5t-89.5 -264.5z" />
<glyph unicode="e" horiz-adv-x="1271" d="M113 524.5q0 237.5 153.5 395t388.5 157.5q225 0 363.5 -158.5t138.5 -396.5q0 -78 -86 -78h-723q10 -131 95 -211.5t231 -80.5q156 0 280 118q37 37 76 37t66.5 -26.5t27.5 -67.5q0 -33 -28 -66q-72 -80 -186.5 -128t-245.5 -48q-260 0 -405.5 158t-145.5 395.5z M352 629h596q-16 113 -95 190.5t-198 77.5q-121 0 -203 -76.5t-100 -191.5z" />
<glyph unicode="f" horiz-adv-x="880" d="M43 954q0 41 26.5 68t67.5 27h144v159q0 412 403 412h84q39 0 66.5 -26.5t27.5 -67.5t-27.5 -67.5t-66.5 -26.5h-68q-98 0 -145 -46.5t-47 -160.5v-176h240q41 0 67.5 -27t26.5 -68t-27 -67.5t-67 -26.5h-240v-766q0 -49 -32 -80.5t-82 -31.5t-81.5 31.5t-31.5 80.5v766 h-144q-41 0 -67.5 26.5t-26.5 67.5z" />
<glyph unicode="g" horiz-adv-x="1398" d="M113 543.5q0 226.5 139 380t371 153.5q121 0 223 -55t151 -148v78q0 53 31 85t78 32q51 0 82 -31.5t31 -83.5v-878q0 -547 -566 -547q-236 0 -422 106q-59 37 -59 89q0 57 48 83q21 12 45 12q32 0 69 -20q147 -86 305 -86q195 0 273.5 85t78.5 259v156 q-51 -90 -151.5 -146.5t-216.5 -56.5q-231 0 -370.5 153.5t-139.5 380zM340 545q0 -147 91 -245.5t237 -98.5q141 0 232 99t91 243.5t-90 244t-234.5 99.5t-235.5 -96t-91 -246z" />
<glyph unicode="h" d="M180 94v1419q0 53 32 84t83 31t82 -28.5t31 -86.5v-639q106 203 348 203q207 0 322.5 -135t115.5 -354v-494q0 -49 -30.5 -80.5t-84.5 -31.5q-49 0 -80.5 31.5t-31.5 80.5v484q0 133 -72 213.5t-201 80.5q-133 0 -209.5 -85t-76.5 -212v-481q0 -49 -32 -80.5t-81 -31.5 q-51 0 -83 31.5t-32 80.5z" />
<glyph unicode="i" horiz-adv-x="587" d="M162 1366q0 55 40 94t93 39t93 -39t40 -94t-40 -94t-93 -39t-93 39t-40 94zM180 94v860q0 49 33 82t82 33t81 -32.5t32 -82.5v-860q0 -49 -31 -80.5t-82 -31.5t-83 31.5t-32 80.5z" />
<glyph unicode="j" horiz-adv-x="587" d="M-94 -377q0 41 26.5 67.5t67.5 26.5h4q102 0 139 45t37 146v1046q0 49 33 82t82 33t81 -32.5t32 -82.5v-1032q0 -199 -88.5 -296t-292.5 -97h-27q-39 0 -66.5 27.5t-27.5 66.5zM162 1366q0 55 40 94t93 39t93 -39t40 -94t-40 -94t-93 -39t-93 39t-40 94z" />
<glyph unicode="k" horiz-adv-x="1202" d="M180 94v1422q0 47 32 79.5t83 32.5t82 -32.5t31 -79.5v-869l507 397q27 25 70 25q47 0 76 -29.5t29 -70.5q0 -45 -54 -86l-325 -254l372 -479q23 -31 23 -66q0 -43 -28.5 -72.5t-80.5 -29.5q-45 0 -75 43l-373 477l-141 -113v-295q0 -49 -31 -80.5t-82 -31.5t-83 31.5 t-32 80.5z" />
<glyph unicode="l" horiz-adv-x="587" d="M180 94v1422q0 47 32 79.5t83 32.5t82 -32.5t31 -79.5v-1422q0 -49 -31 -80.5t-82 -31.5t-83 31.5t-32 80.5z" />
<glyph unicode="m" horiz-adv-x="2123" d="M180 94v858q0 51 32 84t83 33q55 0 84 -32.5t29 -84.5v-78q49 94 141 148.5t201 54.5q127 0 223 -57t145 -158q141 215 404 215q213 0 323.5 -131t110.5 -352v-500q0 -49 -32 -80.5t-83 -31.5q-47 0 -79.5 31.5t-32.5 80.5v484q0 133 -66 213.5t-195 80.5t-207.5 -87 t-78.5 -210v-481q0 -49 -32 -80.5t-82 -31.5t-82 31.5t-32 80.5v484q0 131 -68.5 212.5t-197.5 81.5q-133 0 -206.5 -86t-73.5 -211v-481q0 -49 -31 -80.5t-82 -31.5q-49 0 -82 31.5t-33 80.5z" />
<glyph unicode="n" d="M180 94v858q0 53 32 85t83 32t82 -29.5t31 -87.5v-78q106 203 348 203q207 0 322.5 -135t115.5 -354v-494q0 -49 -30.5 -80.5t-84.5 -31.5q-49 0 -80.5 31.5t-31.5 80.5v484q0 133 -72 213.5t-201 80.5q-133 0 -209.5 -85t-76.5 -212v-481q0 -49 -32 -80.5t-81 -31.5 q-51 0 -83 31.5t-32 80.5z" />
<glyph unicode="o" horiz-adv-x="1333" d="M113 525.5q0 234.5 153.5 393t400 158.5t400.5 -158.5t154 -393t-154 -394.5t-400.5 -160t-400 160t-153.5 394.5zM340 525.5q0 -154.5 87 -258t239.5 -103.5t239.5 103.5t87 258t-87 257t-239.5 102.5t-239.5 -102.5t-87 -257z" />
<glyph unicode="p" horiz-adv-x="1398" d="M180 -358v1312q0 49 30 82t80 33t80.5 -34t30.5 -83v-82q55 94 156.5 150.5t222.5 56.5q211 0 358.5 -156.5t147.5 -396.5q0 -244 -146.5 -398.5t-359.5 -154.5q-242 0 -372 207v-536q0 -47 -31 -80t-82 -33t-83 33t-32 80zM408 524.5q0 -149.5 92 -257t235 -107.5 q147 0 235.5 100t88.5 264t-88 264.5t-236 100.5q-143 0 -235 -107.5t-92 -257z" />
<glyph unicode="q" horiz-adv-x="1398" d="M113 524q0 240 147.5 396.5t357.5 156.5q121 0 222.5 -56t156.5 -151v82q0 49 31 83t81 34t80 -32.5t30 -82.5v-1312q0 -47 -32 -80t-83 -33t-82 32.5t-31 80.5v536q-131 -207 -373 -207q-213 0 -359 154.5t-146 398.5zM340 524q0 -164 89 -264t235 -100q143 0 235 107.5 t92 257t-92 257t-235 107.5q-145 0 -234.5 -100.5t-89.5 -264.5z" />
<glyph unicode="r" horiz-adv-x="849" d="M180 94v858q0 51 33 84t84 33q49 0 80 -31.5t31 -85.5v-104q33 104 113.5 164.5t193.5 60.5q49 0 77.5 -30.5t28.5 -75.5t-29.5 -76t-76.5 -31q-145 0 -226 -94t-81 -274v-398q0 -49 -32 -80.5t-81 -31.5q-53 0 -84 31.5t-31 80.5z" />
<glyph unicode="s" horiz-adv-x="1116" d="M145 188q0 37 26 58.5t60 21.5q45 0 91 -35q127 -94 272 -94q96 0 148.5 33t52.5 91.5t-50.5 91t-185.5 67.5q-221 61 -314 142t-93 214q0 135 116.5 217t311.5 82q160 0 301 -67q111 -53 110 -119q0 -84 -88 -84q-35 0 -98 35q-104 55 -230 55q-203 0 -202 -117 q0 -57 50 -87.5t195 -71.5q213 -59 305.5 -131t92.5 -209.5t-114 -223.5t-324 -86q-225 0 -385 123q-48 39 -48 94z" />
<glyph unicode="t" horiz-adv-x="837" d="M31 954q0 41 27.5 68t66.5 27h184v317q0 47 32 80t82 33t82 -33t32 -80v-317h206q39 0 67 -27t28 -68t-28 -67.5t-67 -26.5h-206v-766q0 -49 -32 -80.5t-82 -31.5t-82 31.5t-32 80.5v766h-184q-39 0 -66.5 26.5t-27.5 67.5z" />
<glyph unicode="u" d="M170 461v493q0 49 29.5 82t83.5 33q51 0 82.5 -32.5t31.5 -82.5v-483q0 -133 71 -214t202 -81q133 0 208.5 85t75.5 212v481q0 49 33 82t82 33t81 -32.5t32 -82.5v-858q0 -53 -32 -83.5t-82 -30.5t-82 28.5t-32 85.5v78q-106 -203 -348 -203q-205 0 -320.5 135.5 t-115.5 354.5z" />
<glyph unicode="v" horiz-adv-x="1120" d="M61 965q0 45 29 74.5t72 29.5q70 0 96 -63l303 -693l301 693q27 63 96 63q45 0 74 -29.5t29 -74.5q0 -23 -10 -43l-398 -881q-31 -59 -93 -59t-91 59l-399 881q-9 20 -9 43z" />
<glyph unicode="w" horiz-adv-x="1630" d="M72 971q0 47 30.5 72.5t73.5 25.5q68 0 92 -74l213 -649l242 655q25 68 92.5 68t89.5 -68l246 -655l213 649q23 74 90 74q45 0 75 -25.5t30 -72.5q0 -18 -11 -43l-297 -883q-25 -63 -94 -63q-72 0 -96 67l-246 668l-246 -668q-23 -68 -96 -67q-76 0 -94 63l-297 883 q-10 25 -10 43z" />
<glyph unicode="x" horiz-adv-x="1208" d="M133 80q0 37 27 67l321 379l-317 377q-27 29 -27 66q0 43 30 71.5t75 28.5t75 -35l287 -358l287 358q31 35 76 35t74.5 -28.5t29.5 -71.5q0 -37 -27 -66l-317 -377l322 -379q27 -31 26 -67q0 -41 -29.5 -69.5t-70.5 -28.5q-51 0 -80 34l-291 361l-291 -361 q-29 -35 -80 -34q-41 0 -70.5 28.5t-29.5 69.5z" />
<glyph unicode="y" horiz-adv-x="1120" d="M72 967q0 49 29.5 75.5t72.5 26.5q70 0 96 -63l310 -773l278 752q29 84 107 84q39 0 67.5 -25.5t28.5 -78.5q0 -29 -10 -54q-150 -418 -318 -805q-94 -219 -193.5 -346t-254.5 -215q-25 -16 -58 -16q-43 0 -72.5 27.5t-29.5 64.5q0 57 59 94q102 68 160.5 133.5 t114.5 167.5l-377 906q-10 29 -10 45z" />
<glyph unicode="z" horiz-adv-x="1163" d="M133 90q0 41 25 72l579 702h-504q-37 0 -65.5 27t-28.5 68.5t29 65.5t65 24h705q45 0 71.5 -26t26.5 -69q0 -33 -24 -65l-582 -705h520q39 0 66.5 -25.5t27.5 -68.5q0 -39 -27.5 -64.5t-66.5 -25.5h-723q-39 0 -66.5 27.5t-27.5 62.5z" />
<glyph unicode="{" horiz-adv-x="890" d="M96 640q0 46 30 73.5t73 27.5h14q74 0 105.5 32t31.5 101v506q0 145 60.5 211t193.5 66h105q43 0 70.5 -25.5t27.5 -69.5t-27.5 -72t-70.5 -28h-62q-70 0 -69 -76v-475q0 -252 -252 -270q252 -20 252 -270v-477q0 -74 69 -74h62q43 0 70.5 -29t27.5 -72t-27.5 -69.5 t-70.5 -26.5h-105q-133 0 -193.5 66.5t-60.5 212.5v504q0 70 -31.5 101.5t-105.5 31.5h-14q-43 0 -73 27.5t-30 73.5z" />
<glyph unicode="|" horiz-adv-x="704" d="M266 -391v2081q0 37 25.5 61.5t61.5 24.5t61.5 -25t25.5 -61v-2081q0 -37 -25.5 -62.5t-61.5 -25.5t-61.5 25.5t-25.5 62.5z" />
<glyph unicode="}" horiz-adv-x="890" d="M84 -281q0 43 27.5 72t72.5 29h60q70 0 69 74v477q0 250 252 270q-252 18 -252 270v475q0 76 -69 76h-60q-45 0 -72.5 28t-27.5 72t27.5 69.5t72.5 25.5h103q133 0 193.5 -65.5t60.5 -211.5v-506q0 -70 31.5 -101.5t107.5 -31.5h14q43 0 72 -27.5t29 -73.5t-29 -73.5 t-72 -27.5h-14q-76 0 -107.5 -32t-31.5 -101v-504q0 -145 -60.5 -212t-193.5 -67h-103q-45 0 -72.5 26.5t-27.5 69.5z" />
<glyph unicode="~" horiz-adv-x="1275" d="M133 561q0 20 10 41q106 201 295 201q102 0 211 -60q20 -8 53 -26l42 -24q9 -5 30 -12t35 -9t37 -2q68 0 108 53l39 51q31 43 82 43q39 0 65.5 -27.5t26.5 -66.5q0 -23 -10 -41q-106 -201 -295 -201q-109 0 -213 58q-10 8 -35.5 21t-33 17.5t-25.5 13.5t-26 11l-21 6 q-14 4 -26.5 5t-26.5 1q-70 0 -111 -55q-23 -35 -41 -53q-31 -35 -84 -35q-39 0 -62.5 25.5t-23.5 64.5z" />
<glyph unicode="&#xa1;" horiz-adv-x="724" d="M217 932.5q0 60.5 43 102.5t102.5 42t102.5 -42t43 -102.5t-43 -102.5t-102.5 -42t-102.5 42t-43 102.5zM250 166l55 422q8 55 57 55q45 0 56 -55l57 -422v-524q0 -47 -30.5 -80t-82 -33t-82 32.5t-30.5 80.5v524z" />
<glyph unicode="&#xa2;" horiz-adv-x="1347" d="M193 805q0 213 122.5 363.5t337.5 183.5v182q0 45 28 74.5t76 29.5t75.5 -29.5t27.5 -74.5v-186q182 -33 273 -142q35 -39 34 -80q0 -39 -27.5 -65.5t-76.5 -26.5q-14 0 -28.5 6.5t-22.5 12.5t-24.5 20t-20.5 19q-86 76 -205 75q-162 0 -252 -104.5t-90 -259t90 -258 t252 -103.5q119 0 205 76q4 4 20.5 18.5t24.5 20.5t22.5 12t28.5 6q49 0 76.5 -26.5t27.5 -65.5q0 -41 -34 -80q-96 -113 -273 -143v-184q0 -45 -27.5 -75t-75.5 -30t-76 30t-28 75v182q-215 33 -337.5 183.5t-122.5 363.5z" />
<glyph unicode="&#xa3;" horiz-adv-x="1622" d="M158 94q0 43 27.5 68.5t68.5 25.5h311v521h-282q-41 0 -69 26.5t-28 69.5t28 68.5t69 25.5h282v203q0 537 522 536q190 0 326 -57q78 -35 78 -94q0 -45 -26.5 -71.5t-75.5 -26.5q-14 0 -43 10q-115 37 -254 37q-160 0 -229.5 -75t-69.5 -243v-219h514q41 0 69.5 -26.5 t28.5 -67.5q0 -43 -28.5 -69.5t-69.5 -26.5h-514v-521h589q41 0 69 -25.5t28 -68.5q0 -41 -28 -67.5t-69 -26.5h-1128q-41 0 -68.5 26.5t-27.5 67.5z" />
<glyph unicode="&#xa4;" horiz-adv-x="1579" d="M170 263q0 36 27 59l161 161q-104 143 -104 322q0 180 104 319l-161 162q-27 27 -27 60q0 37 23.5 61.5t62.5 24.5q37 0 61 -25l158 -162q141 96 315.5 96t313.5 -96l160 162q25 25 61 25q39 0 62.5 -25t23.5 -61q0 -33 -27 -60l-161 -162q104 -139 104 -319 q0 -178 -104 -322l161 -161q27 -23 27 -59t-25.5 -61.5t-60.5 -25.5t-61 27l-160 162q-139 -96 -313.5 -96.5t-315.5 96.5l-158 -162q-27 -27 -61 -27q-37 0 -61.5 25.5t-24.5 61.5zM469 804.5q0 -151.5 89 -248.5t231.5 -97t232.5 97t90 248.5t-90 249t-232.5 97.5 t-231.5 -97.5t-89 -249z" />
<glyph unicode="&#xa5;" horiz-adv-x="1468" d="M121 1532q0 47 29.5 71.5t72.5 24.5q59 0 96 -57l416 -676l416 676q35 57 96 57q41 0 71 -24.5t30 -71.5q0 -33 -21 -66l-330 -518h207q33 0 57.5 -23.5t24.5 -57t-24.5 -56.5t-57.5 -23h-305l-51 -79v-123h356q33 0 57.5 -23.5t24.5 -57.5t-24.5 -56.5t-57.5 -22.5h-356 v-330q0 -47 -30 -80.5t-83 -33.5t-83.5 33.5t-30.5 80.5v330h-355q-35 0 -58.5 22.5t-23.5 56.5t23.5 57.5t58.5 23.5h355v123l-52 79h-303q-35 0 -58.5 23t-23.5 56.5t23.5 57t58.5 23.5h203l-326 518q-22 33 -22 66z" />
<glyph unicode="&#xa6;" horiz-adv-x="704" d="M266 -391v821q0 37 25.5 62.5t61.5 25.5t61.5 -25.5t25.5 -62.5v-821q0 -37 -25.5 -62.5t-61.5 -25.5t-61.5 25.5t-25.5 62.5zM266 868v822q0 37 25.5 61.5t61.5 24.5t61.5 -25t25.5 -61v-822q0 -37 -25.5 -62.5t-61.5 -25.5t-61.5 25.5t-25.5 62.5z" />
<glyph unicode="&#xa7;" horiz-adv-x="1501" d="M193 766q0 190 200 287q-106 92 -106 241q0 158 130 251t369 93q225 0 394 -102q72 -41 71 -102q0 -35 -22.5 -58.5t-63.5 -23.5q-27 0 -104 34q-137 66 -293 66q-254 0 -254 -154q0 -23 5 -38l10 -32q5 -15 20 -31l23 -25q9 -9 34 -22t38 -22.5t47 -23.5t52 -22l61 -23 l66 -27q254 -104 352.5 -187t98.5 -222q0 -176 -184 -297q109 -94 108 -234q0 -154 -131 -256t-362 -102q-260 0 -476 145q-59 43 -59 103q0 33 24.5 57t65.5 24q51 0 105 -38q154 -104 350 -105q121 0 188.5 42t67.5 120q0 82 -74 129t-280 125q-10 4 -19 8 q-254 94 -353 185.5t-99 236.5zM414 778q0 -84 66.5 -128t283.5 -130q137 -55 211 -92q49 29 88 78t39 100q0 82 -73 132t-277 126q-90 35 -203 84q-135 -64 -135 -170z" />
<glyph unicode="&#xa8;" horiz-adv-x="927" d="M133 1368q0 53 36 89t89 36t90 -36t37 -89t-37 -89t-90 -36t-89 36t-36 89zM545 1368q0 53 35.5 89t89 36t89.5 -36t36 -89t-36 -89t-89.5 -36t-89 36t-35.5 89z" />
<glyph unicode="&#xa9;" horiz-adv-x="1937" d="M133 805q0 346 244 589.5t592 243.5t591.5 -243.5t243.5 -589.5t-243.5 -590t-591.5 -244t-592 244t-244 590zM270 805q0 -295 201 -503t498 -208t497.5 208t200.5 503t-200.5 503t-497.5 208t-498 -208t-201 -503zM594 805q0 178 113.5 295t296.5 117q188 0 309 -156 q16 -23 16 -43q0 -53 -55 -53q-31 0 -49 20q-51 61 -99.5 88t-121.5 27q-123 0 -201 -84t-78 -212t78 -211t201 -83q74 0 122 26.5t99 86.5q18 23 49 22q55 0 55 -53q0 -23 -16 -43q-121 -156 -309 -156q-182 0 -296 117t-114 295z" />
<glyph unicode="&#xaa;" horiz-adv-x="999" d="M180 1118q0 104 77 161.5t200 57.5q133 0 215 -73v77q0 92 -46 129t-145.5 37t-167.5 -30q-23 -12 -43 -13q-66 0 -65 64q0 39 55 65q84 45 234 45q160 0 246.5 -78.5t86.5 -226.5v-350q0 -78 -75 -78q-35 0 -56.5 22.5t-21.5 55.5v6q-84 -90 -225 -90q-117 0 -193 60.5 t-76 158.5zM334 1118q0 -53 47 -82.5t117 -29.5q72 0 123 31.5t51 78.5q0 51 -49.5 84t-122.5 33q-78 0 -122 -31t-44 -84z" />
<glyph unicode="&#xab;" horiz-adv-x="1427" d="M121 517q0 32 31 63l356 344q31 27 61 26q43 0 71 -27.5t28 -68.5q0 -33 -37 -68l-281 -268l281 -268q37 -37 37 -70q0 -41 -28 -68.5t-71 -27.5q-31 0 -61 27l-356 344q-31 30 -31 62zM700 517q0 32 33 63l354 344q31 27 64 26q41 0 68.5 -27.5t27.5 -68.5 q0 -33 -37 -68l-280 -268l280 -268q37 -37 37 -70q0 -41 -27.5 -68.5t-68.5 -27.5q-33 0 -64 27l-354 344q-33 30 -33 62z" />
<glyph unicode="&#xac;" horiz-adv-x="1484" d="M170 732q0 38 26.5 64.5t63.5 26.5h905q39 0 65.5 -26.5t26.5 -63.5v-442q0 -45 -29.5 -74t-72.5 -29t-72.5 29t-29.5 74v350h-793q-37 0 -63.5 26.5t-26.5 64.5z" />
<glyph unicode="&#xad;" horiz-adv-x="1079" d="M170 599q0 44 29.5 70.5t70.5 26.5h539q41 0 71.5 -26.5t30.5 -70.5t-30.5 -70.5t-71.5 -26.5h-539q-41 0 -70.5 26.5t-29.5 70.5z" />
<glyph unicode="&#xae;" horiz-adv-x="995" d="M96 1238q0 169 115 284.5t287 115.5t286.5 -115.5t114.5 -284.5t-114.5 -285.5t-286.5 -116.5t-287 116.5t-115 285.5zM180 1237q0 -133 86 -229.5t231.5 -96.5t231.5 96.5t86 229.5t-86 229.5t-231.5 96.5t-231.5 -96.5t-86 -229.5zM377 1071v340q0 29 29 29h112 q61 0 94 -31t33 -84q0 -78 -70 -106l74 -134q6 -10 6 -16q0 -27 -28 -27q-18 0 -27 19l-82 147h-84v-137q0 -29 -28.5 -29t-28.5 29zM434 1262h86q68 0 68 62t-68 62h-86v-124z" />
<glyph unicode="&#xaf;" horiz-adv-x="960" d="M133 1344.5q0 33.5 23.5 56t56.5 22.5h537q31 0 55 -22.5t24 -56t-24.5 -57t-54.5 -23.5h-537q-33 0 -56.5 23.5t-23.5 57z" />
<glyph unicode="&#xb0;" horiz-adv-x="868" d="M133 1341.5q0 120.5 85 208.5t217 88t217 -88t85 -208.5t-85 -206.5t-217 -86t-217 86t-85 206.5zM283 1341.5q0 -69.5 41 -115.5t111.5 -46t111.5 46t41 115.5t-41 117.5t-111.5 48t-111.5 -48t-41 -117.5z" />
<glyph unicode="&#xb1;" horiz-adv-x="1472" d="M193 90q0 39 25.5 62.5t66.5 23.5h905q37 0 63.5 -23.5t26.5 -62.5t-26.5 -64.5t-63.5 -25.5h-905q-39 0 -65.5 25.5t-26.5 64.5zM193 805q0 39 26.5 65.5t65.5 26.5h350v326q0 43 29.5 72.5t72.5 29.5t72 -29.5t29 -72.5v-326h352q37 0 63.5 -26.5t26.5 -65.5 t-26.5 -65.5t-63.5 -26.5h-352v-326q0 -43 -29 -72.5t-72 -29.5t-72.5 29.5t-29.5 72.5v326h-350q-39 0 -65.5 26.5t-26.5 65.5z" />
<glyph unicode="&#xb2;" horiz-adv-x="1181" d="M217 729q0 152 85 240t235 164q12 8 45.5 23t48 24.5t42 25t42 24.5t34 25.5t28.5 29.5t16.5 30.5t7.5 36.5q0 111 -178 110q-111 0 -232 -55q-47 -23 -87 4t-40 70q0 53 70 88q147 70 301 69q168 0 261 -69.5t93 -204.5q0 -63 -20.5 -113.5t-72.5 -94.5t-87 -65 l-119 -71l-77 -42q-50 -28 -71.5 -41t-52 -34.5t-44 -43t-17.5 -48.5h485q37 0 62.5 -22.5t25.5 -61.5q0 -37 -25.5 -60.5t-62.5 -23.5h-606q-41 0 -65.5 25.5t-24.5 60.5z" />
<glyph unicode="&#xb3;" horiz-adv-x="1148" d="M170 827q0 35 22.5 55.5t57.5 20.5t63 -26q106 -90 260 -91q94 0 151.5 43t57.5 109q0 139 -227 139h-84q-33 0 -58.5 20.5t-25.5 57.5t23.5 58.5t60.5 21.5h88q90 0 134 36t44 93q0 51 -37.5 84t-103.5 33q-102 0 -221 -49q-20 -10 -41 -11q-31 0 -53.5 21.5t-22.5 50.5 q0 59 70 90q129 55 262 55q160 0 247 -67.5t87 -192.5q0 -152 -162 -219q207 -43 207 -229q0 -125 -108.5 -213t-291.5 -88q-244 0 -370 133q-29 30 -29 65z" />
<glyph unicode="&#xb4;" horiz-adv-x="788" d="M242 1313q0 31 24 59l135 187q29 41 78 40q39 0 66.5 -23.5t27.5 -64.5q0 -35 -24 -63l-133 -182q-31 -43 -82 -43q-39 0 -65.5 26.5t-26.5 63.5z" />
<glyph unicode="&#xb5;" d="M170 -358v1312q0 49 29.5 82t83.5 33q51 0 82.5 -32.5t31.5 -82.5v-483q0 -135 70 -215t203 -80t208.5 85t75.5 212v481q0 49 33 82t82 33t81 -32.5t32 -82.5v-858q0 -53 -32 -83.5t-82 -30.5t-82 28.5t-32 85.5v78q-106 -203 -348 -203q-111 0 -209 64v-393 q0 -47 -31.5 -80t-83 -33t-82 33t-30.5 80z" />
<glyph unicode="&#xb6;" horiz-adv-x="1433" d="M133 1150q0 198 137.5 329t333.5 131h508q39 0 66.5 -27t27.5 -67v-1440q0 -41 -27.5 -67.5t-66.5 -26.5t-66.5 26.5t-27.5 67.5v1349h-225v-1802q0 -39 -27 -66.5t-68 -27.5t-67.5 27.5t-26.5 66.5v1067q-197 0 -334 131t-137 329z" />
<glyph unicode="&#xb7;" horiz-adv-x="626" d="M170 681q0 60 42 103t102.5 43t102.5 -43t42 -103t-42 -102t-102.5 -42t-102.5 42t-42 102z" />
<glyph unicode="&#xb8;" horiz-adv-x="765" d="M145 -387q0 66 60 65q6 0 65 -12q49 -12 92 -12q102 0 103 63q0 53 -88 54q-27 0 -59.5 -6.5t-47.5 -6.5q-27 0 -45 13.5t-18 35.5q0 8 12 37l64 156h129l-50 -123q41 12 87 12q80 0 132 -44t52 -124q0 -84 -66.5 -138t-195.5 -54q-88 0 -154 18q-72 23 -72 66z" />
<glyph unicode="&#xb9;" horiz-adv-x="905" d="M170 1452q0 63 63 84l246 80q35 12 68 12q41 0 67.5 -26.5t26.5 -69.5v-799q0 -43 -27.5 -68.5t-66.5 -25.5t-66.5 25.5t-27.5 68.5v690l-158 -49q-23 -6 -39 -6q-39 0 -62.5 25.5t-23.5 58.5z" />
<glyph unicode="&#xba;" horiz-adv-x="989" d="M121 1268.5q0 154.5 106.5 262t268 107.5t268 -107.5t106.5 -262t-106.5 -262t-268 -107.5t-268 107.5t-106.5 262zM270 1268.5q0 -101.5 61.5 -169t163 -67.5t164 67.5t62.5 169t-62.5 169t-164 67.5t-163 -67.5t-61.5 -169z" />
<glyph unicode="&#xbb;" horiz-adv-x="1427" d="M180 180q0 33 37 70l281 268l-281 268q-37 35 -37 68q0 41 29 68.5t70 27.5q31 0 61 -26l356 -344q31 -31 31 -63t-31 -62l-356 -344q-31 -27 -61 -27q-41 0 -70 27.5t-29 68.5zM762 180q0 33 35 70l280 268l-280 268q-35 35 -35 68q0 41 27.5 68.5t68.5 27.5 q31 0 64 -26l354 -344q31 -31 31 -63t-31 -62l-354 -344q-33 -27 -64 -27q-41 0 -68.5 27.5t-27.5 68.5z" />
<glyph unicode="&#xbc;" horiz-adv-x="2185" d="M193 1452q0 63 65 84l244 80q37 12 67 12q43 0 69 -26.5t26 -69.5v-799q0 -43 -28 -68.5t-66 -25.5t-66.5 25.5t-28.5 68.5v690l-156 -49q-23 -6 -38 -6q-39 0 -63.5 25.5t-24.5 58.5zM453 49q0 27 18 57l991 1487q31 45 82 45q35 0 59.5 -21.5t24.5 -55.5q0 -25 -18 -56 l-994 -1489q-31 -45 -79 -45q-35 0 -59.5 21.5t-24.5 56.5zM1126 328q0 39 27 65l520 557q35 35 80 35q88 0 88 -100v-482h105q84 0 84 -71q0 -33 -21.5 -54.5t-62.5 -21.5h-105v-174q0 -39 -26.5 -65.5t-65.5 -26.5t-65.5 26.5t-26.5 65.5v174h-449q-35 0 -58.5 20.5 t-23.5 51.5zM1352 403h305v324z" />
<glyph unicode="&#xbd;" horiz-adv-x="2310" d="M193 1452q0 63 65 84l244 80q37 12 67 12q43 0 69 -26.5t26 -69.5v-799q0 -43 -28 -68.5t-66 -25.5t-66.5 25.5t-28.5 68.5v690l-156 -49q-23 -6 -38 -6q-39 0 -63.5 25.5t-24.5 58.5zM453 49q0 27 18 57l991 1487q31 45 82 45q35 0 59.5 -21.5t24.5 -55.5q0 -25 -18 -56 l-994 -1489q-31 -45 -79 -45q-35 0 -59.5 21.5t-24.5 56.5zM1346 86q0 152 85 240t234 166q12 6 46 21t48.5 24.5t42 25t42 24.5t33.5 25.5t28.5 29.5t16.5 30.5t7 36.5q0 111 -176 110q-113 0 -233 -55q-47 -23 -87 4t-40 70q0 53 69 88q147 70 301 69q168 0 261.5 -69.5 t93.5 -204.5q0 -63 -20.5 -112.5t-73 -94.5t-87.5 -67l-116 -70l-78 -42q-51 -28 -72.5 -41t-52.5 -34.5t-44 -42t-18 -47.5h486q37 0 62.5 -23.5t25.5 -62.5q0 -35 -25.5 -59.5t-62.5 -24.5h-606q-41 0 -65.5 25.5t-24.5 60.5z" />
<glyph unicode="&#xbe;" horiz-adv-x="2418" d="M170 827q0 35 22.5 55.5t57.5 20.5t63 -26q106 -90 260 -91q94 0 151.5 43t57.5 109q0 139 -227 139h-84q-33 0 -58.5 20.5t-25.5 57.5t23.5 58.5t60.5 21.5h88q90 0 134 36t44 93q0 51 -37.5 84t-103.5 33q-102 0 -221 -49q-20 -10 -41 -11q-31 0 -53.5 21.5t-22.5 50.5 q0 59 70 90q129 55 262 55q160 0 247 -67.5t87 -192.5q0 -152 -162 -219q207 -43 207 -229q0 -125 -108.5 -213t-291.5 -88q-244 0 -370 133q-29 30 -29 65zM684 49q0 27 18 57l992 1487q33 45 82 45q35 0 60.5 -21.5t25.5 -55.5q0 -25 -21 -56l-993 -1489q-31 -45 -80 -45 q-33 0 -58.5 21.5t-25.5 56.5zM1358 328q0 39 26 65l521 557q37 35 80 35q88 0 88 -100v-482h104q84 0 84 -71q0 -33 -21.5 -54.5t-62.5 -21.5h-104v-174q0 -39 -27 -65.5t-64.5 -26.5t-64.5 26.5t-27 65.5v174h-450q-33 0 -57.5 20.5t-24.5 51.5zM1583 403h307v324z" />
<glyph unicode="&#xbf;" horiz-adv-x="1169" d="M96 -106q0 104 53.5 183t169.5 163l111 87q29 24 58.5 71.5t29.5 109.5v57q0 49 30 78t81 29q47 0 76.5 -30t29.5 -75v-65q0 -117 -48 -187.5t-163 -158.5q-14 -12 -47 -37t-45 -36l-35 -32q-23 -20 -33 -33.5t-21 -33t-15 -40t-4 -42.5q0 -170 276 -170q154 0 332 88 q31 10 57 10q41 0 68.5 -26.5t27.5 -69.5q0 -53 -88 -105q-180 -100 -407 -100q-223 0 -358.5 92.5t-135.5 272.5zM481 932.5q0 60.5 42 102.5t102.5 42t102.5 -42t42 -102.5t-42 -102.5t-102.5 -42t-102.5 42t-42 102.5z" />
<glyph unicode="&#xc0;" horiz-adv-x="1714" d="M104 90q0 18 13 47l637 1424q29 68 103.5 67.5t105.5 -67.5l636 -1424q12 -29 13 -47q0 -47 -29 -77.5t-80 -30.5q-76 0 -104 67l-162 352h-758l-162 -352q-31 -68 -104 -67q-51 0 -80 30.5t-29 77.5zM563 606h590l-295 684zM608 1997q0 41 27 68.5t63 27.5q45 0 80 -39 l119 -139q31 -37 31 -64q0 -37 -27 -64.5t-63 -27.5q-49 0 -86 41l-113 133q-31 35 -31 64z" />
<glyph unicode="&#xc1;" horiz-adv-x="1714" d="M104 90q0 18 13 47l637 1424q29 68 103.5 67.5t105.5 -67.5l636 -1424q12 -29 13 -47q0 -47 -29 -77.5t-80 -30.5q-76 0 -104 67l-162 352h-758l-162 -352q-31 -68 -104 -67q-51 0 -80 30.5t-29 77.5zM563 606h590l-295 684zM754 1851q0 27 32 64l117 139q35 39 80 39 q37 0 63.5 -27.5t26.5 -68.5q0 -29 -29 -64l-114 -133q-35 -41 -86 -41q-37 0 -63.5 27.5t-26.5 64.5z" />
<glyph unicode="&#xc2;" horiz-adv-x="1714" d="M104 90q0 18 13 47l637 1424q29 68 103.5 67.5t105.5 -67.5l636 -1424q12 -29 13 -47q0 -47 -29 -77.5t-80 -30.5q-76 0 -104 67l-162 352h-758l-162 -352q-31 -68 -104 -67q-51 0 -80 30.5t-29 77.5zM555 1821q0 33 27 59l219 199q27 25 57.5 24.5t56.5 -24.5l218 -199 q27 -27 26 -59q0 -33 -23.5 -54.5t-56.5 -21.5q-29 0 -51 18l-170 156l-170 -156q-25 -18 -53 -18q-31 0 -55.5 21.5t-24.5 54.5zM563 606h590l-295 684z" />
<glyph unicode="&#xc3;" horiz-adv-x="1714" d="M104 90q0 18 13 47l637 1424q29 68 103.5 67.5t105.5 -67.5l636 -1424q12 -29 13 -47q0 -47 -29 -77.5t-80 -30.5q-76 0 -104 67l-162 352h-758l-162 -352q-31 -68 -104 -67q-51 0 -80 30.5t-29 77.5zM483 1843q0 47 52 105q70 84 176 84q70 0 163 -41q119 -49 148 -49 q37 0 70 36q31 35 59 35q31 0 53.5 -21.5t22.5 -56.5q0 -66 -60.5 -116t-136.5 -50q-55 0 -182 52q-86 35 -131 34q-45 0 -82 -43q-33 -41 -68 -40q-35 0 -59.5 20t-24.5 51zM563 606h590l-295 684z" />
<glyph unicode="&#xc4;" horiz-adv-x="1714" d="M104 90q0 18 13 47l637 1424q29 68 103.5 67.5t105.5 -67.5l636 -1424q12 -29 13 -47q0 -47 -29 -77.5t-80 -30.5q-76 0 -104 67l-162 352h-758l-162 -352q-31 -68 -104 -67q-51 0 -80 30.5t-29 77.5zM508 1888.5q0 53.5 36 89t89 35.5t90 -35.5t37 -89t-37 -90.5 t-90 -37t-89 37t-36 90.5zM563 606h590l-295 684zM958 1888.5q0 53.5 37 89t90.5 35.5t89 -35.5t35.5 -89t-35.5 -90.5t-89 -37t-90.5 37t-37 90.5z" />
<glyph unicode="&#xc5;" horiz-adv-x="1714" d="M104 90q0 18 13 47l635 1419q-90 55 -90 162q0 80 54 133.5t141 53.5t141.5 -53.5t54.5 -133.5q0 -106 -90 -162l636 -1419q12 -29 13 -47q0 -47 -29 -77.5t-80 -30.5q-76 0 -104 67l-162 352h-758l-162 -352q-31 -68 -104 -67q-51 0 -80 30.5t-29 77.5zM563 606h590 l-295 684zM774 1718q0 -39 22.5 -63.5t61.5 -24.5t61.5 24.5t22.5 63.5t-22.5 61.5t-61.5 22.5t-61.5 -22.5t-22.5 -61.5z" />
<glyph unicode="&#xc6;" horiz-adv-x="2291" d="M104 90q0 18 13 47l637 1405q29 68 104 68h1200q47 0 80 -31t33 -76t-33 -75.5t-80 -30.5h-1030l209 -467h483q43 0 75 -30t32 -76t-32 -76.5t-75 -30.5h-387l230 -504h532q45 0 78 -28.5t33 -78.5q0 -45 -33 -75.5t-78 -30.5h-602q-74 0 -104 68l-152 333h-758 l-162 -352q-31 -68 -104 -67q-51 0 -80 30.5t-29 77.5zM563 606h590l-295 666z" />
<glyph unicode="&#xc7;" horiz-adv-x="1701" d="M121 805q0 350 224 591.5t593 241.5q193 0 353.5 -73.5t254.5 -192.5q33 -39 33 -82q0 -45 -29.5 -72.5t-74.5 -27.5q-55 0 -103 55q-164 182 -420 182q-283 0 -440.5 -177t-157.5 -445t158 -446.5t440 -178.5q256 0 420 185q47 55 103 55q45 0 74.5 -27.5t29.5 -73.5 q0 -43 -33 -81q-88 -115 -237.5 -185.5t-329.5 -79.5l-37 -96q41 12 88 12q80 0 131 -44t51 -124q0 -84 -66.5 -138t-195.5 -54q-88 0 -153 18q-72 23 -72 66q0 66 61 65q4 0 64 -12q49 -12 92 -12q102 0 102 63q0 53 -88 54q-27 0 -59.5 -6.5t-46.5 -6.5q-27 0 -44.5 13.5 t-17.5 35.5q0 8 13 37l53 131q-334 29 -533.5 264.5t-199.5 565.5z" />
<glyph unicode="&#xc8;" horiz-adv-x="1460" d="M217 117v1376q0 49 35 83t84 34h891q47 0 79.5 -31t32.5 -76t-32.5 -75.5t-79.5 -30.5h-778v-467h440q43 0 74.5 -30t31.5 -76t-31.5 -76.5t-74.5 -30.5h-440v-504h815q47 0 78.5 -28.5t31.5 -78.5q0 -45 -31.5 -75.5t-78.5 -30.5h-928q-51 0 -85 34t-34 83zM567 1997 q0 41 27 68.5t63 27.5q45 0 80 -39l119 -139q31 -37 31 -64q0 -37 -26.5 -64.5t-63.5 -27.5q-49 0 -86 41l-115 133q-29 35 -29 64z" />
<glyph unicode="&#xc9;" horiz-adv-x="1460" d="M217 117v1376q0 49 35 83t84 34h891q47 0 79.5 -31t32.5 -76t-32.5 -75.5t-79.5 -30.5h-778v-467h440q43 0 74.5 -30t31.5 -76t-31.5 -76.5t-74.5 -30.5h-440v-504h815q47 0 78.5 -28.5t31.5 -78.5q0 -45 -31.5 -75.5t-78.5 -30.5h-928q-51 0 -85 34t-34 83zM655 1851 q0 27 31 64l119 139q33 39 80 39q37 0 63.5 -27.5t26.5 -68.5q0 -29 -31 -64l-113 -133q-37 -41 -88 -41q-35 0 -61.5 27.5t-26.5 64.5z" />
<glyph unicode="&#xca;" horiz-adv-x="1460" d="M217 117v1376q0 49 35 83t84 34h891q47 0 79.5 -31t32.5 -76t-32.5 -75.5t-79.5 -30.5h-778v-467h440q43 0 74.5 -30t31.5 -76t-31.5 -76.5t-74.5 -30.5h-440v-504h815q47 0 78.5 -28.5t31.5 -78.5q0 -45 -31.5 -75.5t-78.5 -30.5h-928q-51 0 -85 34t-34 83zM485 1821 q0 33 27 59l217 199q27 25 58.5 24.5t58.5 -24.5l217 -199q27 -27 27 -59q0 -33 -24 -54.5t-56 -21.5q-29 0 -54 18l-168 156l-170 -156q-25 -18 -53 -18q-31 0 -55.5 21.5t-24.5 54.5z" />
<glyph unicode="&#xcb;" horiz-adv-x="1460" d="M217 117v1376q0 49 35 83t84 34h891q47 0 79.5 -31t32.5 -76t-32.5 -75.5t-79.5 -30.5h-778v-467h440q43 0 74.5 -30t31.5 -76t-31.5 -76.5t-74.5 -30.5h-440v-504h815q47 0 78.5 -28.5t31.5 -78.5q0 -45 -31.5 -75.5t-78.5 -30.5h-928q-51 0 -85 34t-34 83zM434 1888.5 q0 53.5 37 89t90 35.5t89 -35.5t36 -89t-36 -90.5t-89 -37t-90 37t-37 90.5zM887 1888.5q0 53.5 35.5 89t89 35.5t90.5 -35.5t37 -89t-37 -90.5t-90.5 -37t-89 37t-35.5 90.5z" />
<glyph unicode="&#xcc;" horiz-adv-x="690" d="M125 1997q0 41 26.5 68.5t63.5 27.5q45 0 80 -39l119 -139q31 -37 30 -64q0 -37 -26.5 -64.5t-63.5 -27.5q-49 0 -86 41l-112 133q-31 35 -31 64zM229 98v1413q0 49 33 83t86 34q51 0 82 -32.5t31 -84.5v-1413q0 -49 -31 -82.5t-82 -33.5t-85 33.5t-34 82.5z" />
<glyph unicode="&#xcd;" horiz-adv-x="690" d="M229 98v1413q0 49 33 83t86 34q51 0 82 -32.5t31 -84.5v-1413q0 -49 -31 -82.5t-82 -33.5t-85 33.5t-34 82.5zM233 1851q0 27 33 64l119 139q33 39 80 39q35 0 61.5 -27.5t26.5 -68.5q0 -29 -29 -64l-112 -133q-37 -41 -88 -41q-37 0 -64 27.5t-27 64.5z" />
<glyph unicode="&#xce;" horiz-adv-x="690" d="M43 1821q0 33 27 59l217 199q27 25 58.5 24.5t57.5 -24.5l218 -199q27 -27 26 -59q0 -33 -23.5 -54.5t-56.5 -21.5q-29 0 -53 18l-168 156l-170 -156q-25 -18 -53 -18q-31 0 -55.5 21.5t-24.5 54.5zM229 98v1413q0 49 33 83t86 34q51 0 82 -32.5t31 -84.5v-1413 q0 -49 -31 -82.5t-82 -33.5t-85 33.5t-34 82.5z" />
<glyph unicode="&#xcf;" horiz-adv-x="690" d="M-4 1888.5q0 53.5 36 89t89 35.5t89 -35.5t36 -89t-36 -90.5t-89 -37t-89 37t-36 90.5zM229 98v1413q0 49 33 83t86 34q51 0 82 -32.5t31 -84.5v-1413q0 -49 -31 -82.5t-82 -33.5t-85 33.5t-34 82.5zM446 1888.5q0 53.5 37 89t90.5 35.5t89 -35.5t35.5 -89t-35.5 -90.5 t-89 -37t-90.5 37t-37 90.5z" />
<glyph unicode="&#xd0;" horiz-adv-x="1828" d="M80 805q0 43 29.5 71.5t70.5 28.5h156v586q0 49 35 84t84 35h446q369 0 588 -226.5t219 -578.5t-219 -578.5t-588 -226.5h-446q-49 0 -84 35t-35 84v588h-156q-41 0 -70.5 28.5t-29.5 69.5zM567 213h328q272 0 427 163t155 429t-155 429t-427 163h-328v-492h283 q41 0 71.5 -28.5t30.5 -71.5q0 -41 -30.5 -69.5t-71.5 -28.5h-283v-494z" />
<glyph unicode="&#xd1;" horiz-adv-x="1777" d="M217 90v1428q0 53 31 81.5t84 28.5t86 -45l923 -1175v1110q0 51 32 80.5t80 29.5t78 -29.5t30 -80.5v-1428q0 -47 -29 -77.5t-82 -30.5t-86 41l-926 1177v-1110q0 -47 -30.5 -77.5t-81.5 -30.5q-47 0 -78 30.5t-31 77.5zM502 1843q0 47 51 105q70 84 176 84q72 0 166 -41 q117 -49 147 -49q35 0 70 36q29 35 57 35q31 0 54.5 -21.5t23.5 -56.5q0 -66 -60.5 -116t-137.5 -50q-55 0 -181 52q-88 35 -131 34q-47 0 -82 -43q-35 -41 -67 -40q-37 0 -61.5 20t-24.5 51z" />
<glyph unicode="&#xd2;" horiz-adv-x="1898" d="M133 805q0 348 228.5 590.5t589 242.5t588.5 -242.5t228 -590.5t-228 -591t-588.5 -243t-589 243t-228.5 591zM365 805q0 -260 157.5 -442.5t428 -182.5t427 182.5t156.5 442.5t-156.5 441t-427 181t-428 -181t-157.5 -441zM729 1997q0 41 26.5 68.5t63.5 27.5 q45 0 80 -39l119 -139q31 -37 31 -64q0 -37 -27 -64.5t-64 -27.5q-49 0 -86 41l-112 133q-31 35 -31 64z" />
<glyph unicode="&#xd3;" horiz-adv-x="1898" d="M133 805q0 348 228.5 590.5t589 242.5t588.5 -242.5t228 -590.5t-228 -591t-588.5 -243t-589 243t-228.5 591zM365 805q0 -260 157.5 -442.5t428 -182.5t427 182.5t156.5 442.5t-156.5 441t-427 181t-428 -181t-157.5 -441zM817 1851q0 27 31 64l119 139q35 39 80 39 q37 0 63.5 -27.5t26.5 -68.5q0 -29 -31 -64l-113 -133q-37 -41 -88 -41q-35 0 -61.5 27.5t-26.5 64.5z" />
<glyph unicode="&#xd4;" horiz-adv-x="1898" d="M133 805q0 348 228.5 590.5t589 242.5t588.5 -242.5t228 -590.5t-228 -591t-588.5 -243t-589 243t-228.5 591zM365 805q0 -260 157.5 -442.5t428 -182.5t427 182.5t156.5 442.5t-156.5 441t-427 181t-428 -181t-157.5 -441zM647 1821q0 33 27 59l217 199q27 25 58.5 24.5 t58.5 -24.5l217 -199q27 -27 26 -59q0 -33 -23.5 -54.5t-56.5 -21.5q-29 0 -53 18l-168 156l-170 -156q-25 -18 -53 -18q-31 0 -55.5 21.5t-24.5 54.5z" />
<glyph unicode="&#xd5;" horiz-adv-x="1898" d="M133 805q0 348 228.5 590.5t589 242.5t588.5 -242.5t228 -590.5t-228 -591t-588.5 -243t-589 243t-228.5 591zM365 805q0 -260 157.5 -442.5t428 -182.5t427 182.5t156.5 442.5t-156.5 441t-427 181t-428 -181t-157.5 -441zM578 1843q0 47 51 105q70 84 176 84 q70 0 164 -41q119 -49 147 -49q37 0 70 36q31 35 59 35q31 0 53.5 -21.5t22.5 -56.5q0 -66 -60.5 -116t-136.5 -50q-55 0 -182 52q-86 35 -131 34q-45 0 -82 -43q-33 -41 -67 -40q-35 0 -59.5 20t-24.5 51z" />
<glyph unicode="&#xd6;" horiz-adv-x="1898" d="M133 805q0 348 228.5 590.5t589 242.5t588.5 -242.5t228 -590.5t-228 -591t-588.5 -243t-589 243t-228.5 591zM365 805q0 -260 157.5 -442.5t428 -182.5t427 182.5t156.5 442.5t-156.5 441t-427 181t-428 -181t-157.5 -441zM600 1888.5q0 53.5 36 89t89 35.5t89 -35.5 t36 -89t-36 -90.5t-89 -37t-89 37t-36 90.5zM1051 1888.5q0 53.5 36.5 89t90 35.5t89.5 -35.5t36 -89t-36 -90.5t-89.5 -37t-90 37t-36.5 90.5z" />
<glyph unicode="&#xd7;" horiz-adv-x="1216" d="M193 455q0 39 32 69l254 256l-250 248q-37 35 -36 84q0 33 26.5 58.5t67.5 25.5q37 0 86 -49l235 -234l238 234q49 49 84 49q41 0 67.5 -25.5t26.5 -58.5q0 -49 -35 -84l-250 -248l254 -256q31 -31 31 -69q0 -35 -28.5 -61.5t-69.5 -26.5q-37 0 -64 26l-254 256 l-254 -256q-27 -27 -61 -26q-41 0 -70.5 26.5t-29.5 61.5z" />
<glyph unicode="&#xd8;" horiz-adv-x="1900" d="M133 -82q0 20 19 45l210 250q-229 236 -229 592q0 348 228.5 590.5t588.5 242.5q276 0 486 -153l206 244q27 31 57 30.5t50 -20t20 -49.5q0 -25 -16 -43l-213 -252q227 -242 227 -590t-228 -591t-589 -243q-276 0 -485 152l-211 -246q-23 -27 -53 -27q-27 0 -47.5 20.5 t-20.5 47.5zM365 805q0 -250 141 -424l792 938q-147 109 -348 108q-270 0 -427.5 -181t-157.5 -441zM602 287q145 -106 348 -107q270 0 427 182.5t157 442.5q0 248 -139 418z" />
<glyph unicode="&#xd9;" horiz-adv-x="1773" d="M207 643v868q0 49 32.5 83t86.5 34q51 0 82.5 -32.5t31.5 -84.5v-893q0 -201 116 -319.5t331 -118.5t330.5 119t115.5 319v893q0 51 32 84t83 33q53 0 86 -33.5t33 -83.5v-868q0 -311 -181.5 -491.5t-499 -180.5t-498.5 180.5t-181 491.5zM664 1997q0 41 26.5 68.5 t63.5 27.5q47 0 80 -39l118 -139q31 -37 31 -64q0 -37 -26.5 -64.5t-61.5 -27.5q-51 0 -88 41l-113 133q-30 35 -30 64z" />
<glyph unicode="&#xda;" horiz-adv-x="1773" d="M207 643v868q0 49 32.5 83t86.5 34q51 0 82.5 -32.5t31.5 -84.5v-893q0 -201 116 -319.5t331 -118.5t330.5 119t115.5 319v893q0 51 32 84t83 33q53 0 86 -33.5t33 -83.5v-868q0 -311 -181.5 -491.5t-499 -180.5t-498.5 180.5t-181 491.5zM770 1851q0 27 33 64l119 139 q33 39 79 39q35 0 62 -27.5t27 -68.5q0 -29 -29 -64l-113 -133q-37 -41 -88 -41q-37 0 -63.5 27.5t-26.5 64.5z" />
<glyph unicode="&#xdb;" horiz-adv-x="1773" d="M207 643v868q0 49 32.5 83t86.5 34q51 0 82.5 -32.5t31.5 -84.5v-893q0 -201 116 -319.5t331 -118.5t330.5 119t115.5 319v893q0 51 32 84t83 33q53 0 86 -33.5t33 -83.5v-868q0 -311 -181.5 -491.5t-499 -180.5t-498.5 180.5t-181 491.5zM586 1821q0 33 26 59l217 199 q27 25 58 24.5t57 -24.5l219 -199q27 -27 27 -59q0 -33 -24.5 -54.5t-55.5 -21.5t-53 18l-170 156l-170 -156q-23 -18 -53 -18q-31 0 -54.5 21.5t-23.5 54.5z" />
<glyph unicode="&#xdc;" horiz-adv-x="1773" d="M207 643v868q0 49 32.5 83t86.5 34q51 0 82.5 -32.5t31.5 -84.5v-893q0 -201 116 -319.5t331 -118.5t330.5 119t115.5 319v893q0 51 32 84t83 33q53 0 86 -33.5t33 -83.5v-868q0 -311 -181.5 -491.5t-499 -180.5t-498.5 180.5t-181 491.5zM537 1888.5q0 53.5 35.5 89 t89 35.5t90 -35.5t36.5 -89t-36.5 -90.5t-90 -37t-89 37t-35.5 90.5zM989 1888.5q0 53.5 36 89t89 35.5t89 -35.5t36 -89t-36 -90.5t-89 -37t-89 37t-36 90.5z" />
<glyph unicode="&#xdd;" horiz-adv-x="1439" d="M43 1526q0 45 33 73.5t74 28.5q55 0 92 -47l479 -668l477 668q37 47 92 47q41 0 74 -28.5t33 -73.5q0 -35 -25 -72l-534 -745v-611q0 -49 -32 -82.5t-85 -33.5t-86 33.5t-33 82.5v611l-534 745q-25 37 -25 72zM629 1851q0 27 30 64l119 139q33 39 80 39q37 0 63.5 -27.5 t26.5 -68.5q0 -29 -30 -64l-113 -133q-37 -41 -88 -41q-35 0 -61.5 27.5t-26.5 64.5z" />
<glyph unicode="&#xde;" horiz-adv-x="1574" d="M217 98v1413q0 49 33 83t86 34q51 0 82 -32.5t31 -84.5v-219h501q266 0 407.5 -130t141.5 -347q0 -215 -140 -343t-409 -128h-501v-246q0 -49 -31 -82.5t-82 -33.5t-85 33.5t-34 82.5zM449 555h546q129 0 200 73.5t71 186.5t-71 188.5t-200 75.5h-546v-524z" />
<glyph unicode="&#xdf;" horiz-adv-x="1552" d="M193 94v1051q0 236 133 363.5t385 127.5q227 0 356 -102t129 -272q0 -119 -123 -277l-42 -52l-38 -47q-10 -13 -24.5 -36t-19.5 -39t-5 -35q0 -47 42 -74.5t157 -78.5l24 -9q160 -68 225.5 -140.5t65.5 -186.5q0 -135 -105.5 -225.5t-316.5 -90.5q-199 0 -327 86 q-59 41 -60 90q0 39 24.5 65t65.5 26q23 0 84 -33q104 -59 224 -60q90 0 141 36t51 91q0 61 -44 101.5t-165 81.5q-172 59 -244.5 131.5t-72.5 181.5q0 115 129 264l70 85q24 30 44.5 72t20.5 77q0 88 -73 135t-193 47q-291 0 -291 -291v-1063q0 -49 -31 -80.5t-82 -31.5 t-82.5 31.5t-31.5 80.5z" />
<glyph unicode="&#xe0;" horiz-adv-x="1249" d="M121 297q0 158 114.5 244t296.5 86q195 0 326 -125v104q0 145 -67.5 212t-223.5 67q-119 0 -239 -43q-57 -20 -74 -21q-43 0 -69.5 26.5t-26.5 67.5q0 66 106 109q133 53 324 53q240 0 368.5 -117.5t128.5 -338.5v-527q0 -51 -28.5 -81.5t-81.5 -30.5q-51 0 -82 31.5 t-31 80.5v23q-113 -145 -340 -146q-176 0 -288.5 90.5t-112.5 235.5zM348 297q0 -80 67.5 -126t178.5 -46q109 0 186.5 49t77.5 123q0 78 -79 125t-179 47q-117 0 -184.5 -46t-67.5 -126zM401 1511q0 41 28 64.5t67 23.5q49 0 77 -40l136 -187q25 -29 24 -59 q0 -37 -28.5 -63.5t-63.5 -26.5q-51 0 -82 43l-133 182q-25 28 -25 63z" />
<glyph unicode="&#xe1;" horiz-adv-x="1249" d="M121 297q0 158 114.5 244t296.5 86q195 0 326 -125v104q0 145 -67.5 212t-223.5 67q-119 0 -239 -43q-57 -20 -74 -21q-43 0 -69.5 26.5t-26.5 67.5q0 66 106 109q133 53 324 53q240 0 368.5 -117.5t128.5 -338.5v-527q0 -51 -28.5 -81.5t-81.5 -30.5q-51 0 -82 31.5 t-31 80.5v23q-113 -145 -340 -146q-176 0 -288.5 90.5t-112.5 235.5zM348 297q0 -80 67.5 -126t178.5 -46q109 0 186.5 49t77.5 123q0 78 -79 125t-179 47q-117 0 -184.5 -46t-67.5 -126zM500 1313q0 31 24 59l135 187q29 41 78 40q39 0 66.5 -23.5t27.5 -64.5 q0 -35 -24 -63l-133 -182q-31 -43 -82 -43q-37 0 -64.5 26.5t-27.5 63.5z" />
<glyph unicode="&#xe2;" horiz-adv-x="1249" d="M121 297q0 158 114.5 244t296.5 86q195 0 326 -125v104q0 145 -67.5 212t-223.5 67q-119 0 -239 -43q-57 -20 -74 -21q-43 0 -69.5 26.5t-26.5 67.5q0 66 106 109q133 53 324 53q240 0 368.5 -117.5t128.5 -338.5v-527q0 -51 -28.5 -81.5t-81.5 -30.5q-51 0 -82 31.5 t-31 80.5v23q-113 -145 -340 -146q-176 0 -288.5 90.5t-112.5 235.5zM307 1288q0 33 27 60l233 211q27 25 58.5 24.5t58.5 -24.5l234 -211q27 -27 26 -60q0 -31 -23.5 -53.5t-56.5 -22.5q-29 0 -53 21l-184 168l-187 -168q-25 -20 -53 -21q-33 0 -56.5 22.5t-23.5 53.5z M348 297q0 -80 67.5 -126t178.5 -46q109 0 186.5 49t77.5 123q0 78 -79 125t-179 47q-117 0 -184.5 -46t-67.5 -126z" />
<glyph unicode="&#xe3;" horiz-adv-x="1249" d="M121 297q0 158 114.5 244t296.5 86q195 0 326 -125v104q0 145 -67.5 212t-223.5 67q-119 0 -239 -43q-57 -20 -74 -21q-43 0 -69.5 26.5t-26.5 67.5q0 66 106 109q133 53 324 53q240 0 368.5 -117.5t128.5 -338.5v-527q0 -51 -28.5 -81.5t-81.5 -30.5q-51 0 -82 31.5 t-31 80.5v23q-113 -145 -340 -146q-176 0 -288.5 90.5t-112.5 235.5zM260 1300q0 39 51 101q63 80 156 80q66 0 168 -43t131 -43q41 0 74.5 35.5t56.5 35.5q31 0 54.5 -20.5t23.5 -52.5q0 -63 -63.5 -114.5t-133.5 -51.5q-55 0 -172 51q-84 37 -112 37q-45 0 -78 -37 q-43 -47 -72 -47q-35 0 -59.5 20t-24.5 49zM348 297q0 -80 67.5 -126t178.5 -46q109 0 186.5 49t77.5 123q0 78 -79 125t-179 47q-117 0 -184.5 -46t-67.5 -126z" />
<glyph unicode="&#xe4;" horiz-adv-x="1249" d="M121 297q0 158 114.5 244t296.5 86q195 0 326 -125v104q0 145 -67.5 212t-223.5 67q-119 0 -239 -43q-57 -20 -74 -21q-43 0 -69.5 26.5t-26.5 67.5q0 66 106 109q133 53 324 53q240 0 368.5 -117.5t128.5 -338.5v-527q0 -51 -28.5 -81.5t-81.5 -30.5q-51 0 -82 31.5 t-31 80.5v23q-113 -145 -340 -146q-176 0 -288.5 90.5t-112.5 235.5zM299 1368q0 53 37 89t90 36t89 -36t36 -89t-36 -89t-89 -36t-90 36t-37 89zM348 297q0 -80 67.5 -126t178.5 -46q109 0 186.5 49t77.5 123q0 78 -79 125t-179 47q-117 0 -184.5 -46t-67.5 -126zM711 1368 q0 53 35.5 89t89 36t90.5 -36t37 -89t-37 -89t-90.5 -36t-89 36t-35.5 89z" />
<glyph unicode="&#xe5;" horiz-adv-x="1249" d="M121 297q0 158 114.5 244t296.5 86q195 0 326 -125v104q0 145 -67.5 212t-223.5 67q-119 0 -239 -43q-57 -20 -74 -21q-43 0 -69.5 26.5t-26.5 67.5q0 66 106 109q133 53 324 53q240 0 368.5 -117.5t128.5 -338.5v-527q0 -51 -28.5 -81.5t-81.5 -30.5q-51 0 -82 31.5 t-31 80.5v23q-113 -145 -340 -146q-176 0 -288.5 90.5t-112.5 235.5zM348 297q0 -80 67.5 -126t178.5 -46q109 0 186.5 49t77.5 123q0 78 -79 125t-179 47q-117 0 -184.5 -46t-67.5 -126zM416 1368q0 80 55 133t142 53t142.5 -53t55.5 -133t-55.5 -134t-142.5 -54t-142 54 t-55 134zM528 1368q0 -39 23.5 -64.5t62.5 -25.5t61.5 25.5t22.5 64.5t-22.5 62.5t-61.5 23.5t-62.5 -23.5t-23.5 -62.5z" />
<glyph unicode="&#xe6;" horiz-adv-x="2019" d="M121 297q0 158 113.5 242t297.5 84q207 0 326 -123v106q0 145 -67.5 212t-223.5 67q-129 0 -239 -43q-47 -20 -74 -21q-43 0 -69.5 26.5t-26.5 67.5q0 66 106 109q127 53 324 53q272 0 393 -200q145 201 420 200q223 0 363.5 -158.5t140.5 -396.5q0 -31 -20.5 -53.5 t-61.5 -22.5h-727q6 -129 92 -211.5t231 -82.5q170 0 283 118q35 37 74 37q47 0 69.5 -26.5t22.5 -63.5q0 -31 -29 -67q-160 -178 -428 -179q-141 0 -254 55.5t-166 147.5q-150 -203 -446 -203q-195 0 -309.5 90.5t-114.5 235.5zM346 297q0 -80 73 -127t177 -47 q113 0 187.5 50t74.5 124t-75.5 123t-186.5 49q-115 0 -182.5 -46t-67.5 -126zM1100 623h596q-12 117 -93 196.5t-202 79.5q-123 0 -206 -78.5t-95 -197.5z" />
<glyph unicode="&#xe7;" horiz-adv-x="1181" d="M117 524q0 240 152.5 396.5t412.5 156.5q111 0 215 -43t160 -108q33 -39 33 -80q0 -39 -28 -65.5t-77 -26.5q-14 0 -28.5 6t-22.5 12t-23.5 20.5t-21.5 18.5q-86 76 -205 76q-162 0 -251 -103.5t-89 -258t89 -259t251 -104.5q119 0 205 76q6 4 21.5 18t23.5 20.5 t22.5 12.5t28.5 6q49 0 77 -26.5t28 -65.5q0 -41 -33 -80q-51 -61 -146.5 -104.5t-201.5 -47.5l-37 -94q41 12 88 12q78 0 130 -44t52 -124q0 -84 -66.5 -138t-195.5 -54q-88 0 -154 18q-72 23 -71 66q0 66 59 65q6 0 66 -12q49 -12 92 -12q102 0 102 63q0 53 -88 54 q-27 0 -59.5 -6.5t-46.5 -6.5q-27 0 -44.5 13.5t-17.5 35.5q0 8 10 37l54 133q-217 31 -341 181.5t-124 365.5z" />
<glyph unicode="&#xe8;" horiz-adv-x="1271" d="M113 524.5q0 237.5 153.5 395t388.5 157.5q225 0 363.5 -158.5t138.5 -396.5q0 -78 -86 -78h-723q10 -131 95 -211.5t231 -80.5q156 0 280 118q37 37 76 37t66.5 -26.5t27.5 -67.5q0 -33 -28 -66q-72 -80 -186.5 -128t-245.5 -48q-260 0 -405.5 158t-145.5 395.5z M352 629h596q-16 113 -95 190.5t-198 77.5q-121 0 -203 -76.5t-100 -191.5zM428 1511q0 41 27.5 64.5t66.5 23.5q47 0 78 -40l135 -187q25 -29 25 -59q0 -37 -26.5 -63.5t-65.5 -26.5q-51 0 -82 43l-133 182q-25 28 -25 63z" />
<glyph unicode="&#xe9;" horiz-adv-x="1271" d="M113 524.5q0 237.5 153.5 395t388.5 157.5q225 0 363.5 -158.5t138.5 -396.5q0 -78 -86 -78h-723q10 -131 95 -211.5t231 -80.5q156 0 280 118q37 37 76 37t66.5 -26.5t27.5 -67.5q0 -33 -28 -66q-72 -80 -186.5 -128t-245.5 -48q-260 0 -405.5 158t-145.5 395.5z M352 629h596q-16 113 -95 190.5t-198 77.5q-121 0 -203 -76.5t-100 -191.5zM510 1313q0 31 25 59l135 187q29 41 78 40q39 0 66.5 -23.5t27.5 -64.5q0 -35 -25 -63l-133 -182q-31 -43 -82 -43q-37 0 -64.5 26.5t-27.5 63.5z" />
<glyph unicode="&#xea;" horiz-adv-x="1271" d="M113 524.5q0 237.5 153.5 395t388.5 157.5q225 0 363.5 -158.5t138.5 -396.5q0 -78 -86 -78h-723q10 -131 95 -211.5t231 -80.5q156 0 280 118q37 37 76 37t66.5 -26.5t27.5 -67.5q0 -33 -28 -66q-72 -80 -186.5 -128t-245.5 -48q-260 0 -405.5 158t-145.5 395.5z M340 1288q0 33 27 60l235 211q27 25 57.5 24.5t57.5 -24.5l235 -211q27 -27 27 -60q0 -31 -24.5 -53.5t-55.5 -22.5q-29 0 -53 21l-187 168l-186 -168q-25 -20 -53 -21q-31 0 -55.5 22.5t-24.5 53.5zM352 629h596q-16 113 -95 190.5t-198 77.5q-121 0 -203 -76.5 t-100 -191.5z" />
<glyph unicode="&#xeb;" horiz-adv-x="1271" d="M113 524.5q0 237.5 153.5 395t388.5 157.5q225 0 363.5 -158.5t138.5 -396.5q0 -78 -86 -78h-723q10 -131 95 -211.5t231 -80.5q156 0 280 118q37 37 76 37t66.5 -26.5t27.5 -67.5q0 -33 -28 -66q-72 -80 -186.5 -128t-245.5 -48q-260 0 -405.5 158t-145.5 395.5z M328 1368q0 53 36.5 89t90 36t89.5 -36t36 -89t-36 -89t-89.5 -36t-90 36t-36.5 89zM352 629h596q-16 113 -95 190.5t-198 77.5q-121 0 -203 -76.5t-100 -191.5zM739 1368q0 53 36 89t89.5 36t90 -36t36.5 -89t-36.5 -89t-90 -36t-89.5 36t-36 89z" />
<glyph unicode="&#xec;" horiz-adv-x="587" d="M61 1511q0 41 28 64.5t67 23.5q47 0 75 -40l136 -187q25 -29 24 -59q0 -37 -26.5 -63.5t-65.5 -26.5q-49 0 -82 43l-133 182q-23 28 -23 63zM180 94v860q0 49 33 82t82 33t81 -32.5t32 -82.5v-860q0 -49 -31 -80.5t-82 -31.5t-83 31.5t-32 80.5z" />
<glyph unicode="&#xed;" horiz-adv-x="587" d="M180 94v860q0 49 33 82t82 33t81 -32.5t32 -82.5v-860q0 -49 -31 -80.5t-82 -31.5t-83 31.5t-32 80.5zM188 1313q0 31 25 59l135 187q29 41 78 40q39 0 66.5 -23.5t27.5 -64.5q0 -35 -24 -63l-134 -182q-31 -43 -81 -43q-39 0 -66 26.5t-27 63.5z" />
<glyph unicode="&#xee;" horiz-adv-x="587" d="M-25 1288q0 33 27 60l236 211q27 25 57.5 24.5t56.5 -24.5l236 -211q27 -27 26 -60q0 -31 -24.5 -53.5t-54.5 -22.5q-29 0 -54 21l-186 168l-186 -168q-25 -20 -54 -21q-31 0 -55.5 22.5t-24.5 53.5zM180 94v860q0 49 33 82t82 33t81 -32.5t32 -82.5v-860 q0 -49 -31 -80.5t-82 -31.5t-83 31.5t-32 80.5z" />
<glyph unicode="&#xef;" horiz-adv-x="587" d="M-37 1368q0 53 37 89t90 36t89 -36t36 -89t-36 -89t-89 -36t-90 36t-37 89zM180 94v860q0 49 33 82t82 33t81 -32.5t32 -82.5v-860q0 -49 -31 -80.5t-82 -31.5t-83 31.5t-32 80.5zM375 1368q0 53 35.5 89t89 36t90.5 -36t37 -89t-37 -89t-90.5 -36t-89 36t-35.5 89z" />
<glyph unicode="&#xf0;" horiz-adv-x="1323" d="M121 479q0 223 146.5 364.5t373.5 141.5q205 0 342 -127q-66 233 -217 381l-137 -121q-27 -18 -54 -18q-31 0 -55 23.5t-24 56.5t28 59l117 104q-41 29 -211 125q-45 27 -45 78q0 41 24.5 66.5t65.5 25.5q27 0 66 -16q135 -66 245 -149l101 88q23 23 55 22 q33 0 56.5 -20.5t23.5 -57.5t-27 -63l-90 -78q303 -311 303 -801q0 -242 -141 -417t-414 -175q-250 0 -391 146.5t-141 361.5zM340 479q0 -143 83 -233t232 -90q152 0 241 91t89 232q0 150 -90 236t-237.5 86t-232.5 -91.5t-85 -230.5z" />
<glyph unicode="&#xf1;" d="M180 94v858q0 53 32 85t83 32t82 -29.5t31 -87.5v-78q106 203 348 203q207 0 322.5 -135t115.5 -354v-494q0 -49 -30.5 -80.5t-84.5 -31.5q-49 0 -80.5 31.5t-31.5 80.5v484q0 133 -72 213.5t-201 80.5q-133 0 -209.5 -85t-76.5 -212v-481q0 -49 -32 -80.5t-81 -31.5 q-51 0 -83 31.5t-32 80.5zM319 1300q0 39 52 101q61 80 153 80q66 0 170 -43q100 -43 129 -43q41 0 75 35.5t56 35.5q31 0 54.5 -20.5t23.5 -52.5q0 -63 -63.5 -114.5t-132.5 -51.5q-55 0 -172 51q-84 37 -113 37q-43 0 -78 -37q-43 -47 -72 -47q-35 0 -58.5 20t-23.5 49z " />
<glyph unicode="&#xf2;" horiz-adv-x="1333" d="M113 525.5q0 234.5 153.5 393t400 158.5t400.5 -158.5t154 -393t-154 -394.5t-400.5 -160t-400 160t-153.5 394.5zM340 525.5q0 -154.5 87 -258t239.5 -103.5t239.5 103.5t87 258t-87 257t-239.5 102.5t-239.5 -102.5t-87 -257zM449 1511q0 41 28.5 64.5t67.5 23.5 q47 0 76 -40l135 -187q25 -29 24 -59q0 -37 -27.5 -63.5t-64.5 -26.5q-49 0 -82 43l-133 182q-24 28 -24 63z" />
<glyph unicode="&#xf3;" horiz-adv-x="1333" d="M113 525.5q0 234.5 153.5 393t400 158.5t400.5 -158.5t154 -393t-154 -394.5t-400.5 -160t-400 160t-153.5 394.5zM340 525.5q0 -154.5 87 -258t239.5 -103.5t239.5 103.5t87 258t-87 257t-239.5 102.5t-239.5 -102.5t-87 -257zM539 1313q0 31 24 59l135 187q29 41 78 40 q39 0 66.5 -23.5t27.5 -64.5q0 -35 -24 -63l-133 -182q-31 -43 -82 -43q-37 0 -64.5 26.5t-27.5 63.5z" />
<glyph unicode="&#xf4;" horiz-adv-x="1333" d="M113 525.5q0 234.5 153.5 393t400 158.5t400.5 -158.5t154 -393t-154 -394.5t-400.5 -160t-400 160t-153.5 394.5zM340 525.5q0 -154.5 87 -258t239.5 -103.5t239.5 103.5t87 258t-87 257t-239.5 102.5t-239.5 -102.5t-87 -257zM348 1288q0 33 27 60l233 211 q27 25 58.5 24.5t58.5 -24.5l233 -211q27 -27 27 -60q0 -31 -23.5 -53.5t-56.5 -22.5q-29 0 -51 21l-186 168l-187 -168q-25 -20 -53 -21q-31 0 -55.5 22.5t-24.5 53.5z" />
<glyph unicode="&#xf5;" horiz-adv-x="1333" d="M113 525.5q0 234.5 153.5 393t400 158.5t400.5 -158.5t154 -393t-154 -394.5t-400.5 -160t-400 160t-153.5 394.5zM313 1300q0 39 52 101q63 80 155 80q66 0 168 -43t131 -43q41 0 75 35.5t56 35.5q31 0 54.5 -20.5t23.5 -52.5q0 -63 -63.5 -114.5t-133.5 -51.5 q-55 0 -172 51q-84 37 -112 37q-45 0 -78 -37q-43 -47 -72 -47q-35 0 -59.5 20t-24.5 49zM340 525.5q0 -154.5 87 -258t239.5 -103.5t239.5 103.5t87 258t-87 257t-239.5 102.5t-239.5 -102.5t-87 -257z" />
<glyph unicode="&#xf6;" horiz-adv-x="1333" d="M113 525.5q0 234.5 153.5 393t400 158.5t400.5 -158.5t154 -393t-154 -394.5t-400.5 -160t-400 160t-153.5 394.5zM336 1368q0 53 36 89t89 36t90 -36t37 -89t-37 -89t-90 -36t-89 36t-36 89zM340 525.5q0 -154.5 87 -258t239.5 -103.5t239.5 103.5t87 258t-87 257 t-239.5 102.5t-239.5 -102.5t-87 -257zM748 1368q0 53 35.5 89t89 36t89 -36t35.5 -89t-35.5 -89t-89 -36t-89 36t-35.5 89z" />
<glyph unicode="&#xf7;" horiz-adv-x="1425" d="M180 803q0 39 26.5 65.5t65.5 26.5h881q39 0 65.5 -26.5t26.5 -65.5t-26.5 -65.5t-65.5 -26.5h-881q-39 0 -65.5 26.5t-26.5 65.5zM588 379q0 53 35.5 90t89 37t89.5 -37t36 -90t-36 -89t-89.5 -36t-89 36t-35.5 89zM588 1224.5q0 53.5 35.5 90.5t89 37t89.5 -37 t36 -90.5t-36 -89t-89.5 -35.5t-89 35.5t-35.5 89z" />
<glyph unicode="&#xf8;" horiz-adv-x="1337" d="M117 -92q0 16 18 43l137 174q-156 154 -155 399q0 236 152.5 394.5t400.5 158.5q162 0 299 -82l137 174q25 29 49 29q27 0 47.5 -15.5t20.5 -45.5q0 -18 -19 -41l-139 -174q158 -158 158 -398q0 -233 -154 -393t-399 -160q-168 0 -299 80l-142 -176q-23 -25 -51 -25 q-23 0 -41 16.5t-20 41.5zM344 524q0 -135 64 -229l434 543q-74 47 -172 47q-152 0 -239 -102.5t-87 -258.5zM498 207q68 -43 172 -43q152 0 238.5 103.5t86.5 256.5q0 133 -65 228z" />
<glyph unicode="&#xf9;" d="M170 461v493q0 49 29.5 82t83.5 33q51 0 82.5 -32.5t31.5 -82.5v-483q0 -133 71 -214t202 -81q133 0 208.5 85t75.5 212v481q0 49 33 82t82 33t81 -32.5t32 -82.5v-858q0 -53 -32 -83.5t-82 -30.5t-82 28.5t-32 85.5v78q-106 -203 -348 -203q-205 0 -320.5 135.5 t-115.5 354.5zM455 1511q0 41 27.5 64.5t66.5 23.5q47 0 78 -40l135 -187q25 -29 24 -59q0 -37 -28.5 -63.5t-63.5 -26.5q-51 0 -82 43l-133 182q-24 28 -24 63z" />
<glyph unicode="&#xfa;" d="M170 461v493q0 49 29.5 82t83.5 33q51 0 82.5 -32.5t31.5 -82.5v-483q0 -133 71 -214t202 -81q133 0 208.5 85t75.5 212v481q0 49 33 82t82 33t81 -32.5t32 -82.5v-858q0 -53 -32 -83.5t-82 -30.5t-82 28.5t-32 85.5v78q-106 -203 -348 -203q-205 0 -320.5 135.5 t-115.5 354.5zM549 1313q0 31 24 59l136 187q29 41 77 40q37 0 66 -23.5t29 -64.5q0 -35 -25 -63l-133 -182q-33 -43 -82 -43q-37 0 -64.5 26.5t-27.5 63.5z" />
<glyph unicode="&#xfb;" d="M170 461v493q0 49 29.5 82t83.5 33q51 0 82.5 -32.5t31.5 -82.5v-483q0 -133 71 -214t202 -81q133 0 208.5 85t75.5 212v481q0 49 33 82t82 33t81 -32.5t32 -82.5v-858q0 -53 -32 -83.5t-82 -30.5t-82 28.5t-32 85.5v78q-106 -203 -348 -203q-205 0 -320.5 135.5 t-115.5 354.5zM365 1288q0 33 26 60l236 211q27 25 57.5 24.5t56.5 -24.5l236 -211q27 -27 27 -60q0 -31 -25 -53.5t-55 -22.5q-29 0 -54 21l-186 168l-186 -168q-25 -20 -54 -21q-31 0 -55 22.5t-24 53.5z" />
<glyph unicode="&#xfc;" d="M170 461v493q0 49 29.5 82t83.5 33q51 0 82.5 -32.5t31.5 -82.5v-483q0 -133 71 -214t202 -81q133 0 208.5 85t75.5 212v481q0 49 33 82t82 33t81 -32.5t32 -82.5v-858q0 -53 -32 -83.5t-82 -30.5t-82 28.5t-32 85.5v78q-106 -203 -348 -203q-205 0 -320.5 135.5 t-115.5 354.5zM348 1368q0 53 36 89t89 36t90 -36t37 -89t-37 -89t-90 -36t-89 36t-36 89zM760 1368q0 53 35.5 89t89 36t89.5 -36t36 -89t-36 -89t-89.5 -36t-89 36t-35.5 89z" />
<glyph unicode="&#xfd;" horiz-adv-x="1120" d="M72 967q0 49 29.5 75.5t72.5 26.5q70 0 96 -63l310 -773l278 752q29 84 107 84q39 0 67.5 -25.5t28.5 -78.5q0 -29 -10 -54q-150 -418 -318 -805q-94 -219 -193.5 -346t-254.5 -215q-25 -16 -58 -16q-43 0 -72.5 27.5t-29.5 64.5q0 57 59 94q102 68 160.5 133.5 t114.5 167.5l-377 906q-10 29 -10 45zM438 1313q0 31 23 59l135 187q31 41 78 40q39 0 66.5 -23.5t27.5 -64.5q0 -35 -25 -63l-131 -182q-33 -43 -84 -43q-35 0 -62.5 26.5t-27.5 63.5z" />
<glyph unicode="&#xfe;" horiz-adv-x="1400" d="M180 -358v1874q0 47 30 79.5t80 32.5t80.5 -33.5t30.5 -81.5v-643q55 94 156.5 150.5t222.5 56.5q211 0 358.5 -156.5t147.5 -396.5q0 -244 -146.5 -398.5t-359.5 -154.5q-242 0 -372 207v-536q0 -47 -31 -80t-82 -33t-83 33t-32 80zM408 524.5q0 -149.5 92 -257 t235 -107.5q147 0 235.5 100t88.5 264t-88 264.5t-236 100.5q-143 0 -235 -107.5t-92 -257z" />
<glyph unicode="&#xff;" horiz-adv-x="1120" d="M72 967q0 49 29.5 75.5t72.5 26.5q70 0 96 -63l310 -773l278 752q29 84 107 84q39 0 67.5 -25.5t28.5 -78.5q0 -29 -10 -54q-150 -418 -318 -805q-94 -219 -193.5 -346t-254.5 -215q-25 -16 -58 -16q-43 0 -72.5 27.5t-29.5 64.5q0 57 59 94q102 68 160.5 133.5 t114.5 167.5l-377 906q-10 29 -10 45zM244 1368q0 53 36.5 89t89 36t89.5 -36t37 -89t-37 -89t-89.5 -36t-89 36t-36.5 89zM655 1368q0 53 36 89t89.5 36t89 -36t35.5 -89t-35.5 -89t-89 -36t-89.5 36t-36 89z" />
<glyph unicode="&#x152;" horiz-adv-x="2779" d="M133 805q0 348 228.5 590.5t588.5 242.5q377 0 584 -264v119q0 49 36 83t83 34h893q45 0 77.5 -31t32.5 -76t-32.5 -75.5t-77.5 -30.5h-779v-467h439q45 0 75.5 -30t30.5 -76t-30.5 -76.5t-75.5 -30.5h-439v-504h813q47 0 80 -28.5t33 -78.5q0 -45 -32.5 -75.5 t-80.5 -30.5h-927q-53 0 -86 34t-33 83v116q-207 -262 -584 -262q-360 0 -588.5 243t-228.5 591zM365 805q0 -260 157.5 -442.5t428 -182.5t427 182.5t156.5 442.5t-156.5 441t-427 181t-428 -181t-157.5 -441z" />
<glyph unicode="&#x153;" horiz-adv-x="2154" d="M117 525.5q0 234.5 152.5 393t400.5 158.5q272 0 440 -217q147 217 426 217q225 0 364.5 -157.5t139.5 -395.5q0 -78 -88 -78h-721q8 -129 94 -211.5t231 -82.5q154 0 281 118q35 37 74 37t65.5 -26.5t26.5 -65.5q0 -31 -29 -65q-70 -82 -184.5 -130.5t-243.5 -48.5 q-295 0 -442 213q-70 -98 -183.5 -155.5t-250.5 -57.5q-248 0 -400.5 160t-152.5 394.5zM344 525.5q0 -154.5 87 -258t238.5 -103.5t238.5 103.5t87 258t-87 257t-238.5 102.5t-238.5 -102.5t-87 -257zM1235 623h596q-10 117 -93 196.5t-202 79.5q-123 0 -205 -78.5 t-96 -197.5z" />
<glyph unicode="&#x178;" horiz-adv-x="1439" d="M43 1526q0 45 33 73.5t74 28.5q55 0 92 -47l479 -668l477 668q37 47 92 47q41 0 74 -28.5t33 -73.5q0 -35 -25 -72l-534 -745v-611q0 -49 -32 -82.5t-85 -33.5t-86 33.5t-33 82.5v611l-534 745q-25 37 -25 72zM371 1888.5q0 53.5 35.5 89t89 35.5t89.5 -35.5t36 -89 t-36 -90.5t-89.5 -37t-89 37t-35.5 90.5zM821 1888.5q0 53.5 37 89t90 35.5t89 -35.5t36 -89t-36 -90.5t-89 -37t-90 37t-37 90.5z" />
<glyph unicode="&#x2c6;" horiz-adv-x="903" d="M133 1288q0 33 27 60l233 211q27 25 58.5 24.5t58.5 -24.5l233 -211q27 -27 27 -60q0 -31 -23.5 -53.5t-56.5 -22.5q-29 0 -51 21l-186 168l-187 -168q-25 -20 -53 -21q-33 0 -56.5 22.5t-23.5 53.5z" />
<glyph unicode="&#x2dc;" horiz-adv-x="976" d="M133 1300q0 39 51 101q61 80 154 80q66 0 170 -43q100 -43 131 -43q41 0 75 35.5t54 35.5q33 0 55.5 -20.5t22.5 -52.5q0 -63 -62.5 -114.5t-134.5 -51.5q-55 0 -170 51q-86 37 -114 37q-45 0 -78 -37q-43 -47 -72 -47q-35 0 -58.5 20t-23.5 49z" />
<glyph unicode="&#x2013;" horiz-adv-x="1429" d="M170 599q0 44 29.5 70.5t70.5 26.5h889q41 0 72 -26.5t31 -70.5t-31 -70.5t-72 -26.5h-889q-41 0 -70.5 26.5t-29.5 70.5z" />
<glyph unicode="&#x2014;" horiz-adv-x="2017" d="M170 599q0 44 29.5 70.5t70.5 26.5h1477q41 0 71.5 -26.5t30.5 -70.5t-30.5 -70.5t-71.5 -26.5h-1477q-41 0 -70.5 26.5t-29.5 70.5z" />
<glyph unicode="&#x2018;" horiz-adv-x="608" d="M170 1057v96q0 240 84 406q39 72 98 71q47 0 74 -23.5t27 -54.5q0 -23 -23 -71q-63 -143 -63 -297v-127q0 -47 -27 -77t-72 -30t-71.5 30t-26.5 77z" />
<glyph unicode="&#x2019;" horiz-adv-x="608" d="M158 1030q0 20 20 70q63 145 64 297v129q0 45 26.5 74.5t72.5 29.5t72.5 -29.5t26.5 -74.5v-99q0 -238 -86 -405q-37 -72 -98 -72q-45 0 -71.5 23.5t-26.5 56.5z" />
<glyph unicode="&#x201a;" horiz-adv-x="552" d="M102 -324q0 20 21 70q63 145 63 297v129q0 45 27 76t73 31t72.5 -31t26.5 -76v-96q0 -240 -86 -408q-39 -72 -98 -71q-45 0 -72 24t-27 55z" />
<glyph unicode="&#x201c;" horiz-adv-x="1056" d="M170 1057v96q0 240 84 406q39 72 98 71q47 0 74 -23.5t27 -54.5q0 -23 -23 -71q-63 -143 -63 -297v-127q0 -47 -27 -77t-72 -30t-71.5 30t-26.5 77zM643 1057v96q0 240 84 406q39 72 100 71q45 0 72 -23.5t27 -54.5q0 -23 -23 -71q-61 -143 -61 -297v-127q0 -47 -27 -77 t-73 -30t-72.5 30t-26.5 77z" />
<glyph unicode="&#x201d;" horiz-adv-x="1056" d="M158 1030q0 20 20 70q63 145 64 297v129q0 45 26.5 74.5t72.5 29.5t72.5 -29.5t26.5 -74.5v-99q0 -238 -86 -405q-37 -72 -98 -72q-45 0 -71.5 23.5t-26.5 56.5zM631 1030q0 20 22 70q61 145 62 297v129q0 45 26.5 74.5t72.5 29.5t72.5 -29.5t26.5 -74.5v-99 q0 -238 -84 -405q-39 -72 -100 -72q-45 0 -71.5 23.5t-26.5 56.5z" />
<glyph unicode="&#x201e;" horiz-adv-x="1026" d="M102 -324q0 20 21 70q63 145 63 297v129q0 45 27 76t73 31t72.5 -31t26.5 -76v-96q0 -240 -86 -408q-39 -72 -98 -71q-45 0 -72 24t-27 55zM575 -324q0 20 21 70q63 145 63 297v129q0 45 27 76t73 31t72.5 -31t26.5 -76v-96q0 -240 -84 -408q-39 -72 -100 -71 q-45 0 -72 24t-27 55z" />
<glyph unicode="&#x2022;" horiz-adv-x="921" d="M170 770q0 121 85 206t206 85t207 -85t86 -206t-86 -206t-207 -85t-206 85t-85 206z" />
<glyph unicode="&#x2026;" horiz-adv-x="1884" d="M170 126q0 60 42 102t102.5 42t102.5 -42t42 -102t-42 -102t-102.5 -42t-102.5 42t-42 102zM797 126q0 60 43 102t103.5 42t102 -42t41.5 -102t-41.5 -102t-102 -42t-103.5 42t-43 102zM1425 126q0 60 43 102t102.5 42t102.5 -42t43 -102t-43 -102t-102.5 -42t-102.5 42 t-43 102z" />
<glyph unicode="&#x2039;" horiz-adv-x="847" d="M121 517q0 32 31 63l356 344q31 27 61 26q43 0 71 -27.5t28 -68.5q0 -33 -37 -68l-281 -268l281 -268q37 -37 37 -70q0 -41 -28 -68.5t-71 -27.5q-31 0 -61 27l-356 344q-31 30 -31 62z" />
<glyph unicode="&#x203a;" horiz-adv-x="847" d="M180 180q0 33 37 70l281 268l-281 268q-37 35 -37 68q0 41 29 68.5t70 27.5q31 0 61 -26l356 -344q31 -31 31 -63t-31 -62l-356 -344q-31 -27 -61 -27q-41 0 -70 27.5t-29 68.5z" />
<glyph unicode="&#x20ac;" horiz-adv-x="1724" d="M84 615.5q0 33.5 24.5 57t57.5 23.5h166q-8 53 -8 108.5t8 108.5h-166q-33 0 -57.5 22.5t-24.5 57.5t24.5 57.5t57.5 22.5h192q59 254 231.5 409.5t426.5 155.5q350 0 545 -313q33 -53 32 -100q0 -47 -31.5 -72t-76.5 -25q-51 0 -99 78q-74 123 -160.5 179.5t-209.5 56.5 q-160 0 -270.5 -101.5t-157.5 -267.5h432q33 0 57.5 -22.5t24.5 -57.5t-24.5 -57.5t-57.5 -22.5h-465q-6 -51 -6 -108q0 -55 6 -109h465q33 0 57.5 -23.5t24.5 -57t-24.5 -56t-57.5 -22.5h-432q47 -170 157.5 -270.5t270.5 -100.5q123 0 210 57.5t160 179.5q47 78 99 78 q45 0 76.5 -24.5t31.5 -71.5t-32 -100q-195 -313 -545 -314q-254 0 -426 156t-232 410h-192q-33 0 -57.5 22.5t-24.5 56z" />
<glyph unicode="&#x2122;" horiz-adv-x="1814" d="M121 1551.5q0 23.5 17.5 41t41.5 17.5h535q25 0 42 -17.5t17 -41t-17.5 -41t-41.5 -17.5h-205v-541q0 -27 -18.5 -45t-45.5 -18q-29 0 -45 18.5t-16 44.5v541h-205q-25 0 -42 17.5t-17 41zM891 948v611q0 27 17.5 44t43.5 17q39 0 60 -45l245 -510l244 510q20 45 60 45 q27 0 44 -17.5t17 -43.5v-611q0 -25 -17.5 -42t-44 -17t-43 17.5t-16.5 41.5v371l-186 -389q-20 -41 -58 -41t-59 41l-186 389v-371q0 -25 -16.5 -42t-43 -17t-44 17t-17.5 42z" />
<glyph unicode="&#xe000;" horiz-adv-x="1070" d="M0 1070h1070v-1070h-1070v1070z" />
<glyph unicode="&#xfb01;" horiz-adv-x="1470" d="M43 954q0 41 26.5 68t67.5 27h144v159q0 412 403 412h84q39 0 66.5 -26.5t27.5 -67.5t-27.5 -67.5t-66.5 -26.5h-68q-98 0 -145 -46.5t-47 -160.5v-176h240q41 0 67.5 -27t26.5 -68t-27 -67.5t-67 -26.5h-240v-766q0 -49 -32 -80.5t-82 -31.5t-81.5 31.5t-31.5 80.5v766 h-144q-41 0 -67.5 26.5t-26.5 67.5zM1044 1366q0 55 39 94t94.5 39t94.5 -39t39 -94t-39 -94t-94.5 -39t-94.5 39t-39 94zM1063 94v860q0 49 32.5 82t81 33t81 -32.5t32.5 -82.5v-860q0 -49 -31.5 -80.5t-82 -31.5t-82 31.5t-31.5 80.5z" />
<glyph unicode="&#xfb02;" horiz-adv-x="1470" d="M43 954q0 41 26.5 68t67.5 27h144v159q0 412 403 412h84q39 0 66.5 -26.5t27.5 -67.5t-27.5 -67.5t-66.5 -26.5h-68q-98 0 -145 -46.5t-47 -160.5v-176h240q41 0 67.5 -27t26.5 -68t-27 -67.5t-67 -26.5h-240v-766q0 -49 -32 -80.5t-82 -31.5t-81.5 31.5t-31.5 80.5v766 h-144q-41 0 -67.5 26.5t-26.5 67.5zM1063 94v1422q0 47 31.5 79.5t82 32.5t82 -32.5t31.5 -79.5v-1422q0 -49 -31.5 -80.5t-82 -31.5t-82 31.5t-31.5 80.5z" />
<glyph unicode="&#xfb03;" horiz-adv-x="2353" d="M1925 1366q0 55 40 94t93 39t93 -39t40 -94t-40 -94t-93 -39t-93 39t-40 94zM1943 94v860q0 49 33 82t82 33t81 -32.5t32 -82.5v-860q0 -49 -31 -80.5t-82 -31.5t-83 31.5t-32 80.5zM926 954q0 41 26.5 68t67.5 27h144v159q0 412 403 412h84q39 0 66.5 -26.5t27.5 -67.5 t-27.5 -67.5t-66.5 -26.5h-68q-98 0 -145 -46.5t-47 -160.5v-176h240q41 0 67.5 -27t26.5 -68t-27 -67.5t-67 -26.5h-240v-766q0 -49 -32 -80.5t-82 -31.5t-81.5 31.5t-31.5 80.5v766h-144q-41 0 -67.5 26.5t-26.5 67.5zM43 954q0 41 26.5 68t67.5 27h144v159q0 412 403 412 h84q39 0 66.5 -26.5t27.5 -67.5t-27.5 -67.5t-66.5 -26.5h-68q-98 0 -145 -46.5t-47 -160.5v-176h240q41 0 67.5 -27t26.5 -68t-27 -67.5t-67 -26.5h-240v-766q0 -49 -32 -80.5t-82 -31.5t-81.5 31.5t-31.5 80.5v766h-144q-41 0 -67.5 26.5t-26.5 67.5z" />
<glyph unicode="&#xfb04;" horiz-adv-x="2353" d="M1943 94v1422q0 47 32 79.5t83 32.5t82 -32.5t31 -79.5v-1422q0 -49 -31 -80.5t-82 -31.5t-83 31.5t-32 80.5zM926 954q0 41 26.5 68t67.5 27h144v159q0 412 403 412h84q39 0 66.5 -26.5t27.5 -67.5t-27.5 -67.5t-66.5 -26.5h-68q-98 0 -145 -46.5t-47 -160.5v-176h240 q41 0 67.5 -27t26.5 -68t-27 -67.5t-67 -26.5h-240v-766q0 -49 -32 -80.5t-82 -31.5t-81.5 31.5t-31.5 80.5v766h-144q-41 0 -67.5 26.5t-26.5 67.5zM43 954q0 41 26.5 68t67.5 27h144v159q0 412 403 412h84q39 0 66.5 -26.5t27.5 -67.5t-27.5 -67.5t-66.5 -26.5h-68 q-98 0 -145 -46.5t-47 -160.5v-176h240q41 0 67.5 -27t26.5 -68t-27 -67.5t-67 -26.5h-240v-766q0 -49 -32 -80.5t-82 -31.5t-81.5 31.5t-31.5 80.5v766h-144q-41 0 -67.5 26.5t-26.5 67.5z" />
</font>
</defs>
</svg>
